<?xml version="1.0" encoding="UTF-8" standalone="no"?>
<!-- Created with Inkscape (http://www.inkscape.org/) -->

<svg
   xmlns:dc="http://purl.org/dc/elements/1.1/"
   xmlns:cc="http://creativecommons.org/ns#"
   xmlns:rdf="http://www.w3.org/1999/02/22-rdf-syntax-ns#"
   xmlns:svg="http://www.w3.org/2000/svg"
   xmlns="http://www.w3.org/2000/svg"
   xmlns:sodipodi="http://sodipodi.sourceforge.net/DTD/sodipodi-0.dtd"
   xmlns:inkscape="http://www.inkscape.org/namespaces/inkscape"
   width="120"
   height="120"
   viewBox="0 0 120 119.99999"
   id="svg2"
   version="1.1"
   inkscape:version="0.91 r13725"
   sodipodi:docname="Lieder.svg">
  <title
     id="title4170">GitHub</title>
  <defs
     id="defs4" />
  <sodipodi:namedview
     id="base"
     pagecolor="#ffffff"
     bordercolor="#666666"
     borderopacity="1.0"
     inkscape:pageopacity="0.0"
     inkscape:pageshadow="2"
     inkscape:zoom="2"
     inkscape:cx="-44.939345"
     inkscape:cy="22.636906"
     inkscape:document-units="px"
     inkscape:current-layer="layer1"
     showgrid="false"
     inkscape:object-nodes="true"
     inkscape:window-width="1920"
     inkscape:window-height="1053"
     inkscape:window-x="-9"
     inkscape:window-y="1071"
     inkscape:window-maximized="1"
     fit-margin-top="0"
     fit-margin-left="0"
     fit-margin-right="0"
     fit-margin-bottom="0"
     units="px"
     inkscape:snap-midpoints="true"
     inkscape:snap-smooth-nodes="true" />
  <metadata
     id="metadata7">
    <rdf:RDF>
      <cc:Work
         rdf:about="">
        <dc:format>image/svg+xml</dc:format>
        <dc:type
           rdf:resource="http://purl.org/dc/dcmitype/StillImage" />
        <dc:title>GitHub</dc:title>
        <cc:license
           rdf:resource="http://creativecommons.org/publicdomain/zero/1.0/" />
      </cc:Work>
      <cc:License
         rdf:about="http://creativecommons.org/publicdomain/zero/1.0/">
        <cc:permits
           rdf:resource="http://creativecommons.org/ns#Reproduction" />
        <cc:permits
           rdf:resource="http://creativecommons.org/ns#Distribution" />
        <cc:permits
           rdf:resource="http://creativecommons.org/ns#DerivativeWorks" />
      </cc:License>
    </rdf:RDF>
  </metadata>
  <g
     inkscape:label="Ebene 1"
     inkscape:groupmode="layer"
     id="layer1"
     transform="translate(-265.76758,-169.45117)">
    <path
       style="color:#000000;clip-rule:nonzero;display:inline;overflow:visible;visibility:visible;opacity:1;isolation:auto;mix-blend-mode:normal;color-interpolation:sRGB;color-interpolation-filters:linearRGB;solid-color:#000000;solid-opacity:1;fill:#000000;fill-opacity:1;fill-rule:nonzero;stroke:none;stroke-width:0.10629921;stroke-linecap:round;stroke-linejoin:round;stroke-miterlimit:4;stroke-dasharray:none;stroke-dashoffset:0;stroke-opacity:1;marker:none;color-rendering:auto;image-rendering:auto;shape-rendering:auto;text-rendering:auto;enable-background:accumulate"
       d="m 265.76758,169.45117 0,120 c 31.37864,0 96.51556,0 120,0 l 0,-120 z"
       id="rect4147"
       inkscape:connector-curvature="0"
       sodipodi:nodetypes="ccccc" />
    <path
       style="fill:#ffffff;fill-rule:evenodd;stroke:none;stroke-width:1px;stroke-linecap:butt;stroke-linejoin:miter;stroke-opacity:1"
       d="m 352.84577,177.78739 c -0.2472,0.004 -0.52441,0.0356 -0.87695,0.082 -0.70509,0.0928 -1.88552,0.14932 -2.59961,0.69726 -0.71409,0.54794 -0.82968,1.66301 -1.35352,2.3457 -0.52384,0.68269 -1.55382,1.05522 -1.73632,1.73633 -0.1825,0.68111 0.69782,1.14294 0.46093,1.71485 -0.23689,0.57191 -1.41249,0.32368 -1.67968,0.96875 -0.26719,0.64507 0.78041,1.44271 0.58398,2.17578 -0.19643,0.73307 -1.38446,1.04153 -1.62695,1.62695 -0.24249,0.58542 0,0.77857 0,1.5 0,0.72143 0.61661,1.5227 0,2.82813 -2.96105,6.26885 -12.16636,24.75269 -16.17774,32.70507 -6.88326,-2.5904 -16.99158,1.4961 -16.61719,9.94336 0.37441,8.44726 -7.51627,9.17901 -13.25976,16.48438 -5.74349,7.30537 -4.33096,18.35738 10.25391,25.1914 14.58487,6.83402 21.88801,2.41166 25.36718,-6.63085 3.47917,-9.04252 -4.19292,-14.80683 4.06641,-22.89258 8.25933,-8.08576 2.35069,-14.97391 -3.18164,-18.82617 3.53106,-7.30291 14.46094,-33.56367 14.9375,-34.38282 0.47656,-0.81915 1.56735,-0.90527 2.1543,-1.24414 0.58695,-0.33887 1.14113,-0.24332 1.36718,-0.78906 0.22605,-0.54574 -0.77665,-1.25412 -0.50976,-1.89844 0.26689,-0.64432 1.58259,-0.52171 1.92187,-1.10937 0.33928,-0.58766 -0.28804,-1.35462 0,-1.85352 0.28804,-0.4989 1.05669,-0.22577 1.38867,-0.80078 0.33198,-0.57501 -0.13363,-1.36581 0,-2.38086 0.13363,-1.01505 1.10427,-2.64992 0.97461,-3.63476 -0.12966,-0.98484 -0.74683,-1.4426 -1.09961,-1.90235 -0.35278,-0.45975 -0.55881,-0.6392 -0.90429,-0.9043 -0.34548,-0.2651 -0.68605,-0.54249 -1.1543,-0.66796 -0.23412,-0.0627 -0.45202,-0.0861 -0.69922,-0.082 z m -27.66797,60.77735 c 0.36651,0.0233 0.71476,0.10483 1.0293,0.2539 2.51636,1.19257 3.01278,6.71493 0.71875,8.3125 -2.29403,1.59757 -7.40276,-0.80361 -7.625,-3.59375 -0.19446,-2.44137 3.31144,-5.13602 5.87695,-4.97265 z"
       id="path4160"
       inkscape:connector-curvature="0" />
  </g>
</svg>
