<?xml version="1.0" encoding="UTF-8" standalone="no"?>
<!-- Created with Inkscape (http://www.inkscape.org/) -->

<svg
   xmlns:dc="http://purl.org/dc/elements/1.1/"
   xmlns:cc="http://creativecommons.org/ns#"
   xmlns:rdf="http://www.w3.org/1999/02/22-rdf-syntax-ns#"
   xmlns:svg="http://www.w3.org/2000/svg"
   xmlns="http://www.w3.org/2000/svg"
   xmlns:sodipodi="http://sodipodi.sourceforge.net/DTD/sodipodi-0.dtd"
   xmlns:inkscape="http://www.inkscape.org/namespaces/inkscape"
   width="120"
   height="120"
   viewBox="0 0 120 119.99999"
   id="svg2"
   version="1.1"
   inkscape:version="0.91 r13725"
   sodipodi:docname="GitHub.svg">
  <title
     id="title4170">GitHub</title>
  <defs
     id="defs4" />
  <sodipodi:namedview
     id="base"
     pagecolor="#ffffff"
     bordercolor="#666666"
     borderopacity="1.0"
     inkscape:pageopacity="0.0"
     inkscape:pageshadow="2"
     inkscape:zoom="4"
     inkscape:cx="19.177799"
     inkscape:cy="41.849532"
     inkscape:document-units="px"
     inkscape:current-layer="layer1"
     showgrid="false"
     inkscape:object-nodes="true"
     inkscape:window-width="1920"
     inkscape:window-height="1005"
     inkscape:window-x="-9"
     inkscape:window-y="-9"
     inkscape:window-maximized="1"
     fit-margin-top="0"
     fit-margin-left="0"
     fit-margin-right="0"
     fit-margin-bottom="0"
     units="px" />
  <metadata
     id="metadata7">
    <rdf:RDF>
      <cc:Work
         rdf:about="">
        <dc:format>image/svg+xml</dc:format>
        <dc:type
           rdf:resource="http://purl.org/dc/dcmitype/StillImage" />
        <dc:title>GitHub</dc:title>
        <cc:license
           rdf:resource="http://creativecommons.org/publicdomain/zero/1.0/" />
      </cc:Work>
      <cc:License
         rdf:about="http://creativecommons.org/publicdomain/zero/1.0/">
        <cc:permits
           rdf:resource="http://creativecommons.org/ns#Reproduction" />
        <cc:permits
           rdf:resource="http://creativecommons.org/ns#Distribution" />
        <cc:permits
           rdf:resource="http://creativecommons.org/ns#DerivativeWorks" />
      </cc:License>
    </rdf:RDF>
  </metadata>
  <g
     inkscape:label="Ebene 1"
     inkscape:groupmode="layer"
     id="layer1"
     transform="translate(-265.76758,-169.45117)">
    <path
       style="color:#000000;clip-rule:nonzero;display:inline;overflow:visible;visibility:visible;opacity:1;isolation:auto;mix-blend-mode:normal;color-interpolation:sRGB;color-interpolation-filters:linearRGB;solid-color:#000000;solid-opacity:1;fill:#000000;fill-opacity:1;fill-rule:nonzero;stroke:none;stroke-width:0.10629921;stroke-linecap:round;stroke-linejoin:round;stroke-miterlimit:4;stroke-dasharray:none;stroke-dashoffset:0;stroke-opacity:1;marker:none;color-rendering:auto;image-rendering:auto;shape-rendering:auto;text-rendering:auto;enable-background:accumulate"
       d="m 265.76758,169.45117 0,120 40.70245,0 c 1.16359,-0.31413 2.91461,-1.29648 4.69756,-4.30463 -0.11294,-2.71703 -0.55058,-6.9248 -0.60601,-11.36173 -21.73251,1.66615 -17.17549,-6.86753 -24.73112,-14.53841 -1.70365,-1.72963 -5.2548,-3.17454 -4.10915,-4.49426 1.1621,-1.33866 3.53981,-2.06874 5.14914,-1.32541 9.01723,4.16501 8.75118,16.02178 24.28541,11.69211 0.59388,-3.27047 1.70266,-6.18762 3.67712,-8.15378 -35.04165,-4.28762 -30.22334,-35.57005 -20.60047,-45.7519 -1.39374,-0.43507 -5.14033,-10.88478 0,-15.54516 3.65953,-3.31256 15.95897,5.75491 16.6829,5.8138 0.21097,-2.04856 22.14577,-4.3566 30.07771,0 6.73144,-4.83857 11.06122,-7.07457 16.43073,-6.31815 3.39289,5.89824 1.36416,14.15669 0.50435,15.9244 6.83819,3.27637 19.50795,45.11218 -20.97776,45.49776 7.46636,10.46535 4.60266,22.87603 3.7905,28.93998 0.89927,2.0166 2.17637,3.30962 3.3878,3.92538 l 41.63884,0 0,-120 -120,0 z"
       id="rect4147"
       inkscape:connector-curvature="0" />
  </g>
</svg>
