<?xml version="1.0" encoding="UTF-8" standalone="no"?>
<!-- Created with Inkscape (http://www.inkscape.org/) -->

<svg
   xmlns:dc="http://purl.org/dc/elements/1.1/"
   xmlns:cc="http://creativecommons.org/ns#"
   xmlns:rdf="http://www.w3.org/1999/02/22-rdf-syntax-ns#"
   xmlns:svg="http://www.w3.org/2000/svg"
   xmlns="http://www.w3.org/2000/svg"
   xmlns:sodipodi="http://sodipodi.sourceforge.net/DTD/sodipodi-0.dtd"
   xmlns:inkscape="http://www.inkscape.org/namespaces/inkscape"
   width="120"
   height="120"
   viewBox="0 0 120 120"
   id="svg4752"
   version="1.1"
   inkscape:version="0.91 r13725"
   sodipodi:docname="Laptop.svg">
  <title
     id="title5306">Laptop</title>
  <defs
     id="defs4754" />
  <sodipodi:namedview
     id="base"
     pagecolor="#ffffff"
     bordercolor="#666666"
     borderopacity="1.0"
     inkscape:pageopacity="0.0"
     inkscape:pageshadow="2"
     inkscape:zoom="5.6"
     inkscape:cx="55.715854"
     inkscape:cy="66.947638"
     inkscape:document-units="px"
     inkscape:current-layer="layer1"
     showgrid="false"
     units="px"
     fit-margin-top="0"
     fit-margin-left="0"
     fit-margin-right="0"
     fit-margin-bottom="0"
     inkscape:window-width="1920"
     inkscape:window-height="1005"
     inkscape:window-x="-9"
     inkscape:window-y="-9"
     inkscape:window-maximized="1" />
  <metadata
     id="metadata4757">
    <rdf:RDF>
      <cc:Work
         rdf:about="">
        <dc:format>image/svg+xml</dc:format>
        <dc:type
           rdf:resource="http://purl.org/dc/dcmitype/StillImage" />
        <dc:title>Laptop</dc:title>
        <cc:license
           rdf:resource="http://creativecommons.org/publicdomain/zero/1.0/" />
      </cc:Work>
      <cc:License
         rdf:about="http://creativecommons.org/publicdomain/zero/1.0/">
        <cc:permits
           rdf:resource="http://creativecommons.org/ns#Reproduction" />
        <cc:permits
           rdf:resource="http://creativecommons.org/ns#Distribution" />
        <cc:permits
           rdf:resource="http://creativecommons.org/ns#DerivativeWorks" />
      </cc:License>
    </rdf:RDF>
  </metadata>
  <g
     inkscape:label="Ebene 1"
     inkscape:groupmode="layer"
     id="layer1"
     transform="translate(-290,-433.79077)">
    <path
       style="color:#000000;clip-rule:nonzero;display:inline;overflow:visible;visibility:visible;opacity:1;isolation:auto;mix-blend-mode:normal;color-interpolation:sRGB;color-interpolation-filters:linearRGB;solid-color:#000000;solid-opacity:1;fill:#000000;fill-opacity:1;fill-rule:nonzero;stroke:none;stroke-width:0.10629921;stroke-linecap:round;stroke-linejoin:round;stroke-miterlimit:4;stroke-dasharray:none;stroke-dashoffset:0;stroke-opacity:1;marker:none;color-rendering:auto;image-rendering:auto;shape-rendering:auto;text-rendering:auto;enable-background:accumulate"
       d="M 0 0 L 0 120 L 120 120 L 120 0 L 0 0 z M 69.302734 20.378906 L 69.933594 24.392578 C 70.427178 24.352953 70.6905 24.333633 70.728516 24.333984 C 70.786024 24.337598 70.822326 24.369899 70.832031 24.431641 L 70.871094 24.679688 L 68.5 25.050781 L 68.470703 24.869141 L 68.460938 24.804688 C 68.451232 24.742946 68.472583 24.705162 68.529297 24.683594 L 69.384766 24.482422 L 68.910156 21.466797 C 68.895599 21.374184 68.883383 21.281083 68.875 21.1875 L 68.191406 21.986328 C 68.156127 22.023507 68.121849 22.045443 68.087891 22.050781 C 68.019975 22.061457 67.967837 22.047313 67.929688 22.005859 L 67.71875 21.794922 L 68.855469 20.449219 L 69.302734 20.378906 z M 65.621094 21.058594 C 65.729717 21.056761 65.837329 21.066673 65.945312 21.089844 C 66.160577 21.13314 66.359622 21.231218 66.544922 21.380859 C 66.727177 21.531204 66.894111 21.736906 67.041016 21.998047 C 67.18792 22.259188 67.306633 22.58033 67.394531 22.960938 C 67.483133 23.344589 67.517518 23.683309 67.5 23.982422 C 67.482482 24.281535 67.422091 24.538868 67.324219 24.753906 C 67.223302 24.969648 67.087839 25.142947 66.914062 25.279297 C 66.739584 25.412602 66.541495 25.506011 66.322266 25.556641 C 66.096946 25.608677 65.880187 25.610406 65.667969 25.566406 C 65.455047 25.519361 65.256474 25.423782 65.074219 25.273438 C 64.888919 25.123796 64.723938 24.918094 64.580078 24.65625 C 64.433174 24.395109 64.316414 24.07592 64.228516 23.695312 C 64.139914 23.311661 64.103576 22.974894 64.121094 22.675781 C 64.134863 22.374327 64.194005 22.116132 64.294922 21.900391 C 64.392794 21.685353 64.529738 21.509555 64.701172 21.376953 C 64.871902 21.241307 65.066946 21.148601 65.292969 21.099609 C 65.402584 21.074295 65.512471 21.060427 65.621094 21.058594 z M 65.400391 21.558594 C 65.266417 21.589534 65.140934 21.647303 65.033203 21.736328 C 64.922428 21.826056 64.836343 21.948216 64.777344 22.109375 C 64.714597 22.268192 64.680506 22.469054 64.677734 22.707031 C 64.674963 22.945008 64.711713 23.231472 64.789062 23.566406 C 64.86571 23.898296 64.95761 24.172104 65.064453 24.384766 C 65.171297 24.597428 65.289278 24.758689 65.416016 24.876953 C 65.539005 24.992876 65.671644 25.06559 65.810547 25.097656 C 65.946405 25.130426 66.082823 25.13055 66.216797 25.099609 C 66.350771 25.068669 66.473209 25.00965 66.583984 24.919922 C 66.691715 24.830897 66.777097 24.707646 66.839844 24.548828 C 66.901888 24.386966 66.936682 24.189149 66.939453 23.951172 C 66.942225 23.713195 66.908679 23.425639 66.832031 23.09375 C 66.751636 22.759519 66.659578 22.486099 66.552734 22.273438 C 66.445891 22.060776 66.327206 21.89647 66.201172 21.78125 C 66.074435 21.662985 65.942499 21.591363 65.806641 21.558594 C 65.667738 21.526527 65.534364 21.527653 65.400391 21.558594 z M 61.630859 22.140625 C 61.738406 22.128033 61.847275 22.128347 61.957031 22.140625 C 62.175541 22.162222 62.384675 22.240693 62.583984 22.371094 C 62.780334 22.502498 62.966438 22.690371 63.138672 22.935547 C 63.310905 23.180722 63.460492 23.489441 63.585938 23.859375 C 63.712386 24.232269 63.780547 24.565867 63.792969 24.865234 C 63.805391 25.164602 63.771235 25.426658 63.695312 25.650391 C 63.616431 25.875127 63.49719 26.059878 63.337891 26.212891 C 63.177588 26.362943 62.992379 26.476572 62.779297 26.548828 C 62.560296 26.623092 62.344456 26.645647 62.128906 26.623047 C 61.912353 26.597487 61.704162 26.523983 61.507812 26.392578 C 61.308504 26.262177 61.122399 26.074304 60.953125 25.828125 C 60.780891 25.58295 60.635211 25.276184 60.509766 24.90625 C 60.383317 24.533356 60.313203 24.199758 60.300781 23.900391 C 60.284396 23.599067 60.317603 23.338017 60.396484 23.113281 C 60.472406 22.889549 60.590703 22.69983 60.748047 22.550781 C 60.904387 22.398773 61.090542 22.286148 61.310547 22.214844 C 61.417088 22.178715 61.523313 22.153217 61.630859 22.140625 z M 61.867188 22.621094 C 61.725777 22.60305 61.591154 22.617953 61.460938 22.662109 C 61.33072 22.706266 61.213542 22.775668 61.115234 22.875 C 61.013967 22.975336 60.939105 23.107195 60.896484 23.273438 C 60.849901 23.437724 60.836429 23.639888 60.857422 23.876953 C 60.878415 24.114018 60.944296 24.395161 61.054688 24.720703 C 61.164076 25.043286 61.282622 25.306876 61.410156 25.507812 C 61.53769 25.708749 61.670686 25.857865 61.808594 25.962891 C 61.942538 26.06596 62.081247 26.124535 62.222656 26.142578 C 62.361106 26.161625 62.498689 26.147672 62.628906 26.103516 C 62.759123 26.059359 62.873342 25.989007 62.974609 25.888672 C 63.072917 25.78934 63.146776 25.658427 63.193359 25.494141 C 63.238939 25.326894 63.253415 25.125737 63.232422 24.888672 C 63.211429 24.651607 63.148452 24.369458 63.039062 24.046875 C 62.925712 23.722336 62.807222 23.460703 62.679688 23.259766 C 62.552152 23.058829 62.418154 22.9048 62.28125 22.802734 C 62.143342 22.697709 62.005637 22.640141 61.867188 22.621094 z M 58.134766 23.513672 L 59.929688 27.158203 C 60.38919 26.973669 60.63352 26.876198 60.669922 26.865234 C 60.725906 26.851592 60.771211 26.871667 60.798828 26.927734 L 60.908203 27.152344 L 58.755859 28.212891 L 58.673828 28.046875 L 58.644531 27.988281 C 58.616914 27.932214 58.628041 27.889012 58.675781 27.851562 L 59.431641 27.40625 L 58.082031 24.667969 C 58.040606 24.583868 58.002616 24.497019 57.966797 24.410156 L 57.550781 25.378906 C 57.528146 25.424891 57.50154 25.455514 57.470703 25.470703 C 57.409029 25.501082 57.355387 25.502851 57.306641 25.474609 L 57.042969 25.335938 L 57.728516 23.712891 L 58.134766 23.513672 z M 54.980469 25.609375 C 55.091561 25.609668 55.20431 25.623455 55.320312 25.650391 C 55.549885 25.706222 55.789087 25.817327 56.035156 25.988281 C 56.281225 26.159236 56.530332 26.396977 56.775391 26.701172 C 57.022409 27.0078 57.199796 27.299352 57.314453 27.576172 C 57.42911 27.852992 57.488456 28.109508 57.494141 28.345703 C 57.497392 28.583858 57.448496 28.79957 57.351562 28.998047 C 57.252669 29.19409 57.116622 29.362753 56.941406 29.503906 C 56.761323 29.648981 56.567589 29.745892 56.357422 29.798828 C 56.145294 29.849331 55.924884 29.850754 55.695312 29.794922 C 55.463307 29.74105 55.224104 29.627993 54.980469 29.455078 C 54.7344 29.284124 54.491152 29.048335 54.246094 28.744141 C 53.999075 28.437513 53.817782 28.147913 53.703125 27.871094 C 53.584074 27.593801 53.526688 27.337765 53.523438 27.099609 C 53.517752 26.863415 53.561743 26.645254 53.658203 26.451172 C 53.752703 26.254656 53.890222 26.084047 54.072266 25.941406 C 54.247482 25.800253 54.439735 25.700901 54.654297 25.648438 C 54.760597 25.620989 54.869376 25.609082 54.980469 25.609375 z M 54.949219 26.115234 C 54.873861 26.110732 54.802651 26.115986 54.734375 26.130859 C 54.59539 26.162567 54.474263 26.222333 54.367188 26.308594 C 54.260111 26.394854 54.173367 26.501816 54.115234 26.628906 C 54.054668 26.757957 54.0297 26.907367 54.046875 27.078125 C 54.059656 27.248409 54.117479 27.442832 54.21875 27.658203 C 54.320021 27.873575 54.477708 28.115121 54.693359 28.382812 C 54.90705 28.648071 55.10995 28.853252 55.298828 28.998047 C 55.487707 29.142842 55.664456 29.237893 55.830078 29.289062 C 55.991306 29.339759 56.140312 29.348114 56.279297 29.316406 C 56.415848 29.286659 56.541361 29.226886 56.648438 29.140625 C 56.755514 29.054364 56.837871 28.94741 56.898438 28.818359 C 56.95657 28.69127 56.981531 28.541378 56.96875 28.371094 C 56.954009 28.198376 56.898146 28.006387 56.796875 27.791016 C 56.695604 27.575644 56.539863 27.331664 56.326172 27.066406 C 56.108087 26.800676 55.905675 26.595967 55.716797 26.451172 C 55.527918 26.306377 55.349208 26.208892 55.185547 26.160156 C 55.102736 26.134572 55.024576 26.119736 54.949219 26.115234 z M 51.779297 29.070312 C 52.014877 29.052364 52.277561 29.085456 52.564453 29.171875 C 52.851345 29.258294 53.16112 29.407662 53.488281 29.621094 C 53.81806 29.836233 54.076795 30.057403 54.271484 30.285156 C 54.466174 30.512909 54.601193 30.738095 54.679688 30.960938 C 54.756475 31.186398 54.776852 31.40627 54.746094 31.625 C 54.712718 31.842023 54.636609 32.04593 54.513672 32.234375 C 54.38732 32.428055 54.232299 32.57994 54.048828 32.695312 C 53.86274 32.808979 53.653549 32.878536 53.417969 32.896484 C 53.180681 32.91705 52.917997 32.883958 52.632812 32.794922 C 52.34592 32.708503 52.042005 32.557182 51.714844 32.34375 C 51.385065 32.128611 51.124377 31.911347 50.929688 31.683594 C 50.730673 31.456751 50.594365 31.229366 50.517578 31.003906 C 50.439083 30.781063 50.415597 30.560109 50.447266 30.345703 C 50.476316 30.12959 50.552672 29.926347 50.681641 29.734375 C 50.804577 29.54593 50.958688 29.391674 51.146484 29.275391 C 51.331663 29.1574 51.542009 29.090878 51.779297 29.070312 z M 51.808594 29.595703 C 51.635267 29.598296 51.489785 29.638442 51.369141 29.708984 C 51.246789 29.782144 51.153253 29.877026 51.078125 29.992188 C 51.002997 30.107348 50.951499 30.236159 50.935547 30.375 C 50.917887 30.516458 50.940594 30.665204 51.009766 30.822266 C 51.074613 30.980237 51.188617 31.14685 51.351562 31.320312 C 51.514509 31.493775 51.741395 31.675461 52.029297 31.863281 C 52.314582 32.049394 52.570508 32.182478 52.794922 32.261719 C 53.019336 32.340959 53.215345 32.37564 53.388672 32.373047 C 53.557674 32.371364 53.70382 32.332926 53.826172 32.259766 C 53.946816 32.189223 54.045966 32.093677 54.121094 31.978516 C 54.196222 31.863355 54.242106 31.735208 54.259766 31.59375 C 54.275718 31.454909 54.252347 31.306408 54.1875 31.148438 C 54.120036 30.988758 54.008649 30.823854 53.845703 30.650391 C 53.682758 30.476928 53.459113 30.293534 53.173828 30.107422 C 52.884218 29.922219 52.628711 29.788225 52.404297 29.708984 C 52.179883 29.629744 51.979303 29.591403 51.808594 29.595703 z M 49 32.980469 L 52.746094 34.550781 C 52.971472 34.109873 53.093026 33.875922 53.113281 33.84375 C 53.146546 33.796699 53.194308 33.78249 53.251953 33.806641 L 53.482422 33.902344 L 52.554688 36.117188 L 52.384766 36.044922 L 52.324219 36.019531 C 52.266573 35.995381 52.246398 35.956078 52.257812 35.896484 L 52.535156 35.064453 L 49.71875 33.884766 C 49.632282 33.84854 49.546944 33.809569 49.462891 33.767578 L 49.785156 34.769531 C 49.798281 34.819076 49.798439 34.85892 49.785156 34.890625 C 49.75859 34.954035 49.719372 34.993197 49.664062 35.003906 L 49.373047 35.072266 L 48.824219 33.398438 L 49 32.980469 z M 47.830078 36.136719 L 51.71875 37.3125 C 51.897443 36.850695 51.994891 36.606356 52.011719 36.572266 C 52.039952 36.522034 52.084702 36.501456 52.144531 36.519531 L 52.382812 36.591797 L 51.689453 38.890625 L 51.511719 38.835938 L 51.449219 38.818359 C 51.38939 38.800284 51.365888 38.763578 51.371094 38.703125 L 51.560547 37.845703 L 48.638672 36.962891 C 48.548928 36.935777 48.45903 36.906143 48.371094 36.873047 L 48.794922 37.835938 C 48.813087 37.883864 48.816582 37.924125 48.806641 37.957031 C 48.786758 38.022843 48.751175 38.065673 48.697266 38.082031 L 48.417969 38.179688 L 47.699219 36.572266 L 47.830078 36.136719 z M 48.3125 38.916016 C 48.611278 38.893502 48.953915 38.92238 49.335938 39.003906 C 49.721016 39.086084 50.041128 39.199277 50.304688 39.341797 C 50.568246 39.484317 50.776318 39.646455 50.929688 39.826172 C 51.082405 40.008945 51.180525 40.206713 51.230469 40.421875 C 51.277357 40.636385 51.279381 40.854174 51.232422 41.074219 C 51.184159 41.300376 51.094562 41.498249 50.964844 41.671875 C 50.832069 41.844848 50.660638 41.984485 50.447266 42.085938 C 50.233241 42.190446 49.977814 42.253979 49.679688 42.273438 C 49.380909 42.295951 49.042179 42.26512 48.660156 42.183594 C 48.275077 42.101416 47.953012 41.990176 47.689453 41.847656 C 47.422186 41.70754 47.215217 41.546054 47.0625 41.363281 C 46.909131 41.183564 46.807306 40.98489 46.759766 40.773438 C 46.709169 40.561332 46.706494 40.344646 46.757812 40.119141 C 46.804772 39.899095 46.891964 39.699466 47.025391 39.523438 C 47.155761 39.346756 47.328944 39.208024 47.542969 39.103516 C 47.756341 39.002064 48.013722 38.93853 48.3125 38.916016 z M 48.355469 39.476562 C 48.117572 39.483311 47.917512 39.520544 47.759766 39.585938 C 47.598963 39.650678 47.477837 39.738453 47.390625 39.847656 C 47.302761 39.959916 47.2494 40.082325 47.220703 40.216797 C 47.192006 40.351269 47.191527 40.489709 47.226562 40.625 C 47.260946 40.763348 47.33406 40.893938 47.455078 41.015625 C 47.572388 41.139716 47.74066 41.2561 47.955078 41.359375 C 48.169496 41.46265 48.443117 41.549351 48.779297 41.621094 C 49.112421 41.692184 49.400775 41.725498 49.638672 41.71875 C 49.876569 41.712002 50.073572 41.674115 50.234375 41.609375 C 50.391469 41.547039 50.511745 41.456009 50.599609 41.34375 C 50.686821 41.234547 50.74474 41.111035 50.773438 40.976562 C 50.802135 40.84209 50.800008 40.706707 50.765625 40.568359 C 50.73059 40.433068 50.656372 40.301825 50.539062 40.177734 C 50.418697 40.052991 50.253481 39.939211 50.039062 39.835938 C 49.824646 39.732663 49.549921 39.641403 49.216797 39.570312 C 48.879965 39.501627 48.593366 39.469815 48.355469 39.476562 z M 50.556641 42.953125 L 50.802734 42.988281 L 50.451172 45.363281 L 50.269531 45.335938 L 50.205078 45.326172 C 50.143252 45.317017 50.113043 45.285175 50.109375 45.224609 L 50.171875 44.349609 L 47.152344 43.902344 C 47.059605 43.888612 46.966823 43.871477 46.875 43.851562 L 47.435547 44.742188 C 47.460509 44.786951 47.469879 44.827324 47.464844 44.861328 C 47.454774 44.929337 47.425947 44.975953 47.375 45 L 47.111328 45.136719 L 46.166016 43.650391 L 46.232422 43.203125 L 50.25 43.798828 C 50.359418 43.315896 50.419965 43.057664 50.431641 43.021484 C 50.452245 42.967672 50.494815 42.94397 50.556641 42.953125 z M 80.371094 44.496094 C 86.054684 44.496054 90.662159 49.103519 90.662109 54.787109 C 90.662159 60.470699 86.054684 65.078165 80.371094 65.078125 C 78.218094 65.074995 76.120287 64.396682 74.373047 63.138672 C 75.221107 62.254842 76.230902 61.273957 76.482422 60.748047 C 75.227862 61.120867 73.97331 61.483891 72.71875 61.650391 C 71.024 59.765651 70.084078 57.321759 70.080078 54.787109 C 70.080028 49.103519 74.687504 44.496054 80.371094 44.496094 z M 47.589844 45.724609 C 47.761044 45.719554 47.944263 45.727324 48.138672 45.746094 C 48.530599 45.783934 48.860611 45.859089 49.138672 45.970703 C 49.416733 46.082317 49.643589 46.219756 49.816406 46.380859 C 49.988923 46.545074 50.107545 46.729416 50.181641 46.9375 C 50.252626 47.145284 50.279435 47.361978 50.257812 47.585938 C 50.23559 47.816116 50.169673 48.023682 50.060547 48.210938 C 49.948311 48.397892 49.794197 48.554622 49.59375 48.679688 C 49.393003 48.807863 49.14554 48.89988 48.851562 48.953125 C 48.557285 49.00948 48.216942 49.018009 47.828125 48.980469 C 47.436197 48.942629 47.104233 48.869426 46.826172 48.757812 C 46.5447 48.649009 46.319002 48.511871 46.146484 48.347656 C 45.973667 48.186552 45.850582 48.001548 45.779297 47.796875 C 45.704901 47.591902 45.679744 47.376364 45.705078 47.146484 C 45.726701 46.922526 45.789807 46.715455 45.902344 46.525391 C 46.01177 46.335026 46.168393 46.177004 46.369141 46.048828 C 46.569587 45.923763 46.81705 45.831746 47.111328 45.775391 C 47.258467 45.747213 47.418644 45.729664 47.589844 45.724609 z M 48.085938 46.320312 C 47.743478 46.290389 47.454335 46.292406 47.21875 46.326172 C 46.983165 46.359938 46.787956 46.419041 46.638672 46.501953 C 46.486277 46.584565 46.376958 46.686272 46.302734 46.804688 C 46.228211 46.926213 46.187042 47.054543 46.173828 47.191406 C 46.160614 47.32827 46.176365 47.465275 46.226562 47.595703 C 46.27646 47.729241 46.363972 47.8499 46.498047 47.957031 C 46.628711 48.066972 46.808429 48.163974 47.033203 48.242188 C 47.257977 48.3204 47.540655 48.375168 47.882812 48.408203 C 48.221862 48.440938 48.512461 48.440016 48.748047 48.40625 C 48.983632 48.372484 49.173777 48.313081 49.326172 48.230469 C 49.475156 48.150667 49.585632 48.04926 49.660156 47.927734 C 49.73438 47.809319 49.777802 47.677879 49.791016 47.541016 C 49.80423 47.404152 49.786226 47.270257 49.736328 47.136719 C 49.68613 47.006291 49.597461 46.885332 49.466797 46.775391 C 49.333022 46.665149 49.156415 46.568448 48.931641 46.490234 C 48.706867 46.412021 48.424985 46.353047 48.085938 46.320312 z M 49.789062 49.521484 L 50.039062 49.535156 L 49.916016 51.931641 L 49.730469 51.921875 L 49.666016 51.917969 C 49.603598 51.914757 49.569979 51.886111 49.560547 51.826172 L 49.541016 50.947266 L 46.492188 50.791016 C 46.398561 50.786198 46.304243 50.778637 46.210938 50.767578 L 46.853516 51.601562 C 46.882637 51.643741 46.896298 51.682467 46.894531 51.716797 C 46.890999 51.785456 46.866778 51.834481 46.818359 51.863281 L 46.568359 52.025391 L 45.486328 50.636719 L 45.507812 50.183594 L 49.566406 50.392578 C 49.629227 49.901407 49.663706 49.640645 49.671875 49.603516 C 49.687249 49.547982 49.726645 49.518273 49.789062 49.521484 z M 47.238281 52.291016 C 47.409504 52.286804 47.592796 52.294726 47.787109 52.314453 C 48.178846 52.354224 48.509602 52.43194 48.787109 52.544922 C 49.064617 52.657904 49.290869 52.797031 49.462891 52.958984 C 49.634597 53.124047 49.753102 53.309132 49.826172 53.517578 C 49.896132 53.725709 49.921163 53.940213 49.898438 54.164062 C 49.875079 54.39413 49.807312 54.602348 49.697266 54.789062 C 49.58411 54.975462 49.429576 55.131783 49.228516 55.255859 C 49.027139 55.383045 48.778611 55.473595 48.484375 55.525391 C 48.189823 55.580295 47.851518 55.58633 47.462891 55.546875 C 47.071154 55.507104 46.738444 55.433295 46.460938 55.320312 C 46.180004 55.210125 45.954909 55.071312 45.783203 54.90625 C 45.611181 54.744297 45.490198 54.558537 45.419922 54.353516 C 45.346537 54.148178 45.32119 53.932877 45.347656 53.703125 C 45.370382 53.479276 45.435357 53.271539 45.548828 53.082031 C 45.659191 52.892208 45.816202 52.736561 46.017578 52.609375 C 46.218639 52.485299 46.467167 52.392795 46.761719 52.337891 C 46.908995 52.310438 47.067058 52.295227 47.238281 52.291016 z M 46.865234 52.888672 C 46.629485 52.921277 46.434847 52.980324 46.285156 53.0625 C 46.132357 53.14436 46.022072 53.247186 45.947266 53.365234 C 45.872144 53.486391 45.830294 53.613203 45.816406 53.75 C 45.802518 53.886797 45.817633 54.023623 45.867188 54.154297 C 45.916426 54.288079 46.003173 54.409788 46.136719 54.517578 C 46.26684 54.628161 46.445536 54.725368 46.669922 54.804688 C 46.894308 54.884006 47.177539 54.941842 47.519531 54.976562 C 47.858414 55.010967 48.147064 55.011121 48.382812 54.978516 C 48.618561 54.945911 48.810091 54.886547 48.962891 54.804688 C 49.112266 54.72562 49.223707 54.62311 49.298828 54.501953 C 49.373634 54.383905 49.417752 54.253984 49.431641 54.117188 C 49.445529 53.98039 49.428145 53.846673 49.378906 53.712891 C 49.329351 53.582217 49.241449 53.460193 49.111328 53.349609 C 48.978098 53.23871 48.802511 53.14182 48.578125 53.0625 C 48.353739 52.98318 48.071305 52.923077 47.732422 52.888672 C 47.390114 52.857061 47.100983 52.856067 46.865234 52.888672 z M 73.705078 53.964844 C 72.694418 53.965004 71.87515 54.784262 71.875 55.794922 C 71.87515 56.805582 72.678793 57.513512 73.689453 57.513672 C 74.700113 57.513512 75.534996 56.805582 75.535156 55.794922 C 75.534996 54.784262 74.715738 53.965004 73.705078 53.964844 z M 31.677734 54.109375 C 32.523599 54.109375 33.205078 54.66688 33.205078 55.359375 L 33.205078 85.214844 L 62.138672 85.214844 C 62.831167 85.214844 63.388672 86.289464 63.388672 87.625 C 63.388672 88.960536 62.831167 90.035156 62.138672 90.035156 L 30.888672 90.035156 C 30.196177 90.035156 29.638672 88.960536 29.638672 87.625 C 29.638672 86.823779 29.842272 86.121469 30.152344 85.683594 L 30.152344 55.359375 C 30.152344 54.66688 30.83187 54.109375 31.677734 54.109375 z M 45.052734 55.337891 L 48.851562 56.78125 C 49.061881 56.332963 49.176159 56.09534 49.195312 56.0625 C 49.226965 56.01435 49.271648 55.997346 49.330078 56.019531 L 49.564453 56.109375 L 48.712891 58.353516 L 48.541016 58.287109 L 48.478516 58.263672 C 48.420085 58.241487 48.398813 58.202524 48.408203 58.142578 L 48.65625 57.302734 L 45.802734 56.21875 C 45.715089 56.185473 45.628395 56.148495 45.542969 56.109375 L 45.898438 57.099609 C 45.913232 57.148681 45.914545 57.19052 45.902344 57.222656 C 45.87794 57.286929 45.840071 57.325314 45.785156 57.337891 L 45.755859 57.345703 C 46.010591 57.429708 46.278109 57.550432 46.564453 57.728516 C 46.898814 57.936462 47.163705 58.15347 47.363281 58.376953 C 47.562858 58.600436 47.703807 58.823831 47.787109 59.044922 C 47.868761 59.268666 47.893202 59.485733 47.867188 59.705078 C 47.83852 59.922773 47.767263 60.12925 47.648438 60.320312 C 47.52631 60.516683 47.374289 60.671696 47.193359 60.791016 C 47.009776 60.908685 46.801543 60.982813 46.566406 61.005859 C 46.329619 61.031559 46.066343 61.004714 45.779297 60.921875 C 45.4906 60.84169 45.18327 60.696531 44.851562 60.490234 C 44.517202 60.282288 44.252311 60.069186 44.052734 59.845703 C 43.848854 59.623223 43.708605 59.399525 43.626953 59.175781 C 43.543651 58.954691 43.513998 58.734572 43.541016 58.519531 C 43.565379 58.30284 43.638891 58.099017 43.763672 57.904297 C 43.882499 57.713234 44.031563 57.55587 44.216797 57.435547 C 44.399377 57.313574 44.608916 57.240543 44.845703 57.214844 C 45.026536 57.19712 45.22867 57.220702 45.441406 57.263672 L 44.892578 55.761719 L 45.052734 55.337891 z M 44.886719 57.742188 C 44.713489 57.748534 44.57026 57.790142 44.451172 57.863281 C 44.330433 57.939074 44.23668 58.035583 44.164062 58.152344 C 44.091446 58.269105 44.044192 58.397956 44.03125 58.537109 C 44.016658 58.678917 44.042677 58.828848 44.115234 58.984375 C 44.183487 59.140905 44.300133 59.304716 44.466797 59.474609 C 44.633461 59.644503 44.864348 59.820412 45.15625 60.001953 C 45.445499 60.181844 45.703609 60.310404 45.929688 60.384766 C 46.155765 60.459127 46.354114 60.490721 46.527344 60.484375 C 46.696269 60.479032 46.840198 60.435168 46.960938 60.359375 C 47.080025 60.286236 47.177384 60.189027 47.25 60.072266 C 47.322616 59.955505 47.366267 59.827354 47.380859 59.685547 C 47.393801 59.546393 47.367081 59.398718 47.298828 59.242188 C 47.227921 59.084006 47.111976 58.919893 46.945312 58.75 C 46.77865 58.580107 46.550967 58.402547 46.261719 58.222656 C 45.968166 58.043769 45.710452 57.914205 45.484375 57.839844 C 45.258298 57.765482 45.057295 57.734191 44.886719 57.742188 z M 43.208984 59.720703 C 43.444528 59.73913 43.698523 59.811973 43.96875 59.941406 C 44.238977 60.07084 44.521978 60.264268 44.8125 60.525391 C 45.105346 60.788602 45.326953 61.047795 45.484375 61.302734 C 45.641797 61.557673 45.741799 61.802905 45.785156 62.035156 C 45.826425 62.269731 45.812016 62.489755 45.748047 62.701172 C 45.681753 62.910499 45.576188 63.098284 45.425781 63.265625 C 45.271197 63.437614 45.093538 63.564548 44.894531 63.650391 C 44.6932 63.734144 44.475778 63.77038 44.240234 63.751953 C 44.002602 63.735851 43.748606 63.663008 43.480469 63.53125 C 43.210242 63.401817 42.9331 63.206435 42.642578 62.945312 C 42.634505 62.938057 42.629062 62.931073 42.621094 62.923828 C 42.634072 62.940836 42.64721 62.953286 42.660156 62.970703 C 42.895057 63.286711 43.062217 63.58221 43.166016 63.863281 C 43.269815 64.144353 43.317963 64.404388 43.314453 64.640625 C 43.308435 64.878726 43.25302 65.092555 43.148438 65.287109 C 43.041989 65.479156 42.899326 65.643115 42.71875 65.777344 C 42.533158 65.915301 42.335115 66.00411 42.123047 66.048828 C 41.909114 66.091039 41.688163 66.084254 41.460938 66.019531 C 41.231203 65.956673 40.996488 65.834608 40.759766 65.652344 C 40.520535 65.471944 40.287723 65.225609 40.054688 64.912109 C 39.819786 64.596102 39.650674 64.300603 39.546875 64.019531 C 39.438704 63.737816 39.390466 63.478336 39.396484 63.240234 C 39.399995 63.003997 39.452701 62.787838 39.556641 62.597656 C 39.658716 62.404966 39.802778 62.240918 39.990234 62.105469 C 40.17081 61.97124 40.367544 61.880012 40.583984 61.835938 C 40.798561 61.789355 41.020267 61.79847 41.25 61.861328 C 41.477225 61.926051 41.711941 62.048116 41.951172 62.228516 C 42.011161 62.273752 42.071054 62.335036 42.130859 62.388672 C 42.075482 62.316093 42.013387 62.244163 41.96875 62.171875 C 41.806915 61.917171 41.707284 61.672075 41.666016 61.4375 C 41.622658 61.205249 41.633061 60.984347 41.697266 60.777344 C 41.759146 60.568251 41.866529 60.378884 42.023438 60.208984 C 42.173844 60.041644 42.347361 59.91225 42.550781 59.826172 C 42.751877 59.738005 42.971352 59.704601 43.208984 59.720703 z M 42.916016 60.238281 C 42.840907 60.24588 42.772053 60.263469 42.707031 60.289062 C 42.5749 60.342574 42.464962 60.421174 42.373047 60.523438 C 42.281132 60.6257 42.212857 60.74416 42.175781 60.878906 C 42.136617 61.015977 42.135444 61.166213 42.179688 61.332031 C 42.219517 61.498085 42.307019 61.682487 42.441406 61.878906 C 42.575794 62.075326 42.769731 62.28779 43.025391 62.517578 C 43.278726 62.745277 43.513066 62.916547 43.722656 63.029297 C 43.932247 63.142046 44.121298 63.208378 44.292969 63.232422 C 44.460226 63.256701 44.610056 63.239058 44.742188 63.185547 C 44.87223 63.13436 44.984257 63.055389 45.076172 62.953125 C 45.168087 62.850861 45.23232 62.732774 45.271484 62.595703 C 45.30856 62.460957 45.309361 62.310585 45.269531 62.144531 C 45.227378 61.976389 45.142201 61.794076 45.007812 61.597656 C 44.873426 61.401237 44.681069 61.186683 44.427734 60.958984 C 44.169986 60.731521 43.938106 60.560015 43.728516 60.447266 C 43.518925 60.334516 43.327549 60.266095 43.158203 60.244141 C 43.072368 60.232119 42.991124 60.230683 42.916016 60.238281 z M 68.708984 62.162109 C 68.819524 62.151038 68.932632 62.15304 69.050781 62.167969 C 69.28486 62.200026 69.534611 62.286752 69.796875 62.431641 C 70.059139 62.576529 70.330581 62.788873 70.605469 63.066406 C 70.882555 63.34616 71.088099 63.617219 71.230469 63.880859 C 71.372839 64.1445 71.458467 64.394532 71.488281 64.628906 C 71.515875 64.86548 71.490188 65.083665 71.414062 65.291016 C 71.33574 65.496146 71.218453 65.679555 71.058594 65.837891 C 70.894294 66.000624 70.70951 66.115298 70.505859 66.189453 C 70.30001 66.261388 70.081735 66.285964 69.847656 66.253906 C 69.611358 66.224048 69.361608 66.135369 69.101562 65.988281 C 68.839298 65.843392 68.573716 65.633002 68.298828 65.355469 C 68.021741 65.075715 67.812292 64.806609 67.669922 64.542969 C 67.523132 64.279307 67.43775 64.029542 67.410156 63.792969 C 67.380342 63.558594 67.404366 63.337697 67.480469 63.134766 C 67.554372 62.929614 67.671392 62.746451 67.837891 62.585938 C 67.99775 62.427601 68.180602 62.310463 68.388672 62.236328 C 68.491607 62.198151 68.598445 62.173181 68.708984 62.162109 z M 40.859375 62.3125 C 40.78425 62.305069 40.713334 62.308107 40.644531 62.320312 C 40.504418 62.346589 40.381836 62.402346 40.271484 62.484375 C 40.161133 62.566404 40.068893 62.668237 40.005859 62.792969 C 39.940317 62.919565 39.911357 63.066985 39.921875 63.238281 C 39.92802 63.408934 39.975546 63.607023 40.068359 63.826172 C 40.161173 64.045321 40.310553 64.29248 40.515625 64.568359 C 40.718833 64.841731 40.912602 65.054997 41.095703 65.207031 C 41.278805 65.359066 41.451729 65.461956 41.615234 65.519531 C 41.774367 65.576462 41.924339 65.588776 42.064453 65.5625 C 42.202059 65.538088 42.329101 65.482419 42.439453 65.400391 C 42.549805 65.318362 42.63563 65.21644 42.701172 65.089844 C 42.764206 64.965112 42.795209 64.817137 42.789062 64.646484 C 42.781053 64.473324 42.733439 64.277743 42.640625 64.058594 C 42.547811 63.839445 42.402426 63.589778 42.199219 63.316406 C 41.991639 63.042391 41.796383 62.829769 41.613281 62.677734 C 41.43018 62.5257 41.257344 62.422254 41.095703 62.367188 C 41.01395 62.3384 40.9345 62.319931 40.859375 62.3125 z M 68.728516 62.669922 C 68.653093 62.673151 68.582021 62.685252 68.515625 62.707031 C 68.380612 62.752789 68.267614 62.825115 68.169922 62.921875 C 68.07223 63.018635 67.997954 63.133256 67.953125 63.265625 C 67.906076 63.400193 67.895137 63.550645 67.929688 63.71875 C 67.959818 63.886834 68.037388 64.075413 68.160156 64.279297 C 68.282925 64.48318 68.46513 64.706943 68.707031 64.951172 C 68.946733 65.193181 69.168396 65.377237 69.371094 65.501953 C 69.573792 65.626669 69.759701 65.702368 69.929688 65.736328 C 70.095254 65.770267 70.245846 65.762555 70.380859 65.716797 C 70.513652 65.673238 70.630824 65.600667 70.728516 65.503906 C 70.826207 65.407146 70.89631 65.292772 70.943359 65.158203 C 70.988188 65.025834 70.998881 64.875115 70.96875 64.707031 C 70.93642 64.536727 70.86105 64.350368 70.738281 64.146484 C 70.615513 63.942601 70.436968 63.716618 70.197266 63.474609 C 69.953144 63.232579 69.730042 63.048544 69.527344 62.923828 C 69.324646 62.799112 69.136538 62.721193 68.96875 62.689453 C 68.883757 62.672473 68.803938 62.666692 68.728516 62.669922 z M 39.099609 62.865234 L 40.144531 66.791016 C 40.63132 66.700284 40.889888 66.653994 40.927734 66.650391 C 40.985307 66.648005 41.024943 66.67593 41.041016 66.736328 L 41.105469 66.978516 L 38.785156 67.595703 L 38.738281 67.417969 L 38.722656 67.353516 C 38.706584 67.293117 38.72318 67.251958 38.777344 67.224609 L 39.607422 66.9375 L 38.822266 63.986328 C 38.798157 63.895731 38.775881 63.805095 38.757812 63.712891 L 38.162109 64.580078 C 38.130887 64.620724 38.097672 64.645457 38.064453 64.654297 C 37.998015 64.671976 37.944597 64.662263 37.902344 64.625 L 37.671875 64.4375 L 38.660156 62.982422 L 39.099609 62.865234 z M 66.427734 65.035156 C 66.663155 65.055092 66.916156 65.130556 67.185547 65.261719 C 67.454938 65.392882 67.736549 65.588583 68.025391 65.851562 C 68.316543 66.116647 68.535622 66.37687 68.691406 66.632812 C 68.84719 66.888756 68.94446 67.134664 68.986328 67.367188 C 69.026092 67.602022 69.012589 67.820248 68.947266 68.03125 C 68.879632 68.240148 68.770617 68.42933 68.619141 68.595703 C 68.463457 68.766698 68.287444 68.891998 68.087891 68.976562 C 67.886027 69.059024 67.667061 69.094155 67.431641 69.074219 C 67.194116 69.056593 66.941116 68.983083 66.673828 68.849609 C 66.404437 68.718446 66.128686 68.520792 65.839844 68.257812 C 65.548691 67.992729 65.325706 67.734458 65.169922 67.478516 C 65.009723 67.22278 64.912811 66.978975 64.873047 66.744141 C 64.831179 66.511617 64.842673 66.288619 64.908203 66.082031 C 64.971423 65.87334 65.078334 65.684516 65.236328 65.515625 C 65.387804 65.349252 65.563611 65.221491 65.767578 65.136719 C 65.969235 65.049843 66.19021 65.017531 66.427734 65.035156 z M 66.130859 65.552734 C 66.055704 65.559851 65.985106 65.576386 65.919922 65.601562 C 65.78745 65.654227 65.678505 65.732312 65.585938 65.833984 C 65.493369 65.935657 65.424657 66.052994 65.386719 66.1875 C 65.346676 66.324317 65.34354 66.47648 65.386719 66.642578 C 65.425483 66.808884 65.511406 66.992176 65.644531 67.189453 C 65.777657 67.38673 65.972381 67.600609 66.226562 67.832031 C 66.478433 68.061349 66.709105 68.233566 66.917969 68.347656 C 67.126832 68.461747 67.316768 68.529544 67.488281 68.554688 C 67.655379 68.580038 67.805028 68.564382 67.9375 68.511719 C 68.067868 68.461366 68.180869 68.382922 68.273438 68.28125 C 68.366005 68.179578 68.430661 68.060645 68.470703 67.923828 C 68.508642 67.789322 68.51142 67.638962 68.472656 67.472656 C 68.431581 67.304247 68.347969 67.123058 68.214844 66.925781 C 68.081718 66.728504 67.890542 66.510568 67.638672 66.28125 C 67.382387 66.052139 67.15027 65.879716 66.941406 65.765625 C 66.732543 65.651534 66.540296 65.583587 66.371094 65.560547 C 66.285337 65.547975 66.206015 65.545617 66.130859 65.552734 z M 80.425781 66.212891 L 82.587891 66.212891 C 84.962174 66.212891 86.873047 66.770396 86.873047 67.462891 L 86.873047 97.162109 C 86.873047 97.854604 84.962174 98.412109 82.587891 98.412109 L 80.425781 98.412109 C 78.051498 98.412109 76.140625 97.854604 76.140625 97.162109 L 76.140625 67.462891 C 76.140625 66.770396 78.051498 66.212891 80.425781 66.212891 z M 63.845703 66.976562 L 66.298828 70.214844 C 66.715061 69.946617 66.937036 69.804769 66.970703 69.787109 C 67.02309 69.763111 67.071638 69.774397 67.109375 69.824219 L 67.259766 70.023438 L 65.347656 71.472656 L 65.236328 71.326172 L 65.195312 71.273438 C 65.157577 71.223616 65.159436 71.178628 65.199219 71.132812 L 65.857422 70.552734 L 64.013672 68.119141 C 63.957067 68.044408 63.903185 67.967178 63.851562 67.888672 L 63.626953 68.917969 C 63.613437 68.967408 63.593808 69.002681 63.566406 69.023438 C 63.53995 69.043475 63.514139 69.034661 63.488281 69.041016 C 63.64389 69.247002 63.792078 69.486635 63.923828 69.779297 C 64.085462 70.138342 64.183529 70.46297 64.224609 70.759766 C 64.26569 71.056561 64.257236 71.320798 64.203125 71.550781 C 64.146164 71.782047 64.046232 71.976944 63.902344 72.144531 C 63.757173 72.309269 63.582122 72.440841 63.376953 72.533203 C 63.166085 72.628131 62.953052 72.671742 62.736328 72.669922 C 62.518321 72.665252 62.305705 72.610011 62.097656 72.498047 C 61.886758 72.387365 61.684295 72.219041 61.492188 71.990234 C 61.297231 71.76271 61.121288 71.47143 60.960938 71.115234 C 60.799302 70.756189 60.69733 70.431561 60.65625 70.134766 C 60.611037 69.836403 60.61882 69.573063 60.675781 69.341797 C 60.729892 69.111814 60.830335 68.913455 60.972656 68.75 C 61.113694 68.583696 61.287849 68.453407 61.5 68.361328 C 61.705169 68.268966 61.915862 68.221222 62.136719 68.224609 C 62.356292 68.225147 62.572305 68.281896 62.783203 68.392578 C 62.917823 68.465026 63.048175 68.570765 63.177734 68.691406 L 63.484375 67.25 L 63.845703 66.976562 z M 62.091797 68.710938 C 61.949308 68.706541 61.81874 68.734572 61.693359 68.791016 C 61.567979 68.847459 61.457467 68.928806 61.369141 69.037109 C 61.277965 69.146696 61.215931 69.283561 61.189453 69.453125 C 61.158843 69.621123 61.165348 69.824635 61.208984 70.058594 C 61.25262 70.292552 61.345219 70.565454 61.486328 70.878906 C 61.626155 71.189509 61.769795 71.441129 61.916016 71.628906 C 62.062236 71.816683 62.208123 71.951656 62.355469 72.042969 C 62.498682 72.132715 62.642668 72.177245 62.785156 72.181641 C 62.924795 72.187319 63.060166 72.161912 63.185547 72.105469 C 63.310928 72.049025 63.416638 71.967008 63.507812 71.857422 C 63.596139 71.749118 63.658843 71.611357 63.689453 71.443359 C 63.71878 71.272512 63.713558 71.071849 63.669922 70.837891 C 63.626286 70.603932 63.536311 70.328181 63.396484 70.017578 C 63.252525 69.705409 63.109111 69.455355 62.962891 69.267578 C 62.81667 69.079801 62.6695 68.941979 62.523438 68.853516 C 62.376092 68.762203 62.231436 68.716616 62.091797 68.710938 z M 59.529297 69.109375 L 60.574219 73.035156 C 61.061017 72.944474 61.321529 72.898131 61.359375 72.894531 C 61.416948 72.892152 61.45659 72.920069 61.472656 72.980469 L 61.537109 73.220703 L 59.216797 73.837891 L 59.169922 73.660156 L 59.152344 73.597656 C 59.136278 73.537256 59.154818 73.496093 59.208984 73.46875 L 60.037109 73.179688 L 59.253906 70.230469 C 59.229807 70.139869 59.207512 70.047284 59.189453 69.955078 L 58.591797 70.822266 C 58.56057 70.862908 58.529314 70.887648 58.496094 70.896484 C 58.429654 70.914157 58.376234 70.906407 58.333984 70.869141 L 58.101562 70.681641 L 59.091797 69.224609 L 59.529297 69.109375 z M 57.109375 69.662109 L 57.78125 73.667969 C 58.274402 73.62329 58.538155 73.601602 58.576172 73.601562 C 58.633715 73.604587 58.669351 73.637579 58.679688 73.699219 L 58.722656 73.945312 L 56.355469 74.341797 L 56.324219 74.160156 L 56.314453 74.095703 C 56.304116 74.034064 56.324369 73.994804 56.380859 73.972656 L 57.234375 73.763672 L 56.728516 70.751953 C 56.71301 70.659494 56.700748 70.568102 56.691406 70.474609 L 56.015625 71.28125 C 55.980728 71.318789 55.946011 71.340018 55.912109 71.345703 C 55.844306 71.357074 55.792479 71.343795 55.753906 71.302734 L 55.541016 71.09375 L 56.664062 69.736328 L 57.109375 69.662109 z M 53.710938 70.074219 C 53.934942 70.053083 54.151453 70.075842 54.359375 70.150391 C 54.567004 70.221828 54.750225 70.346657 54.914062 70.519531 C 55.07479 70.692699 55.213211 70.917009 55.324219 71.195312 C 55.435227 71.473617 55.510182 71.810321 55.546875 72.199219 C 55.583862 72.591228 55.572621 72.930455 55.515625 73.224609 C 55.458629 73.518764 55.365736 73.766623 55.240234 73.966797 C 55.111622 74.167264 54.953981 74.319518 54.763672 74.431641 C 54.573069 74.540652 54.36463 74.607771 54.140625 74.628906 C 53.910398 74.650629 53.694752 74.624465 53.490234 74.552734 C 53.285424 74.477892 53.102133 74.356762 52.941406 74.183594 C 52.777568 74.010719 52.639147 73.784456 52.53125 73.505859 C 52.420242 73.227556 52.349193 72.894757 52.3125 72.505859 C 52.275513 72.11385 52.282848 71.774623 52.339844 71.480469 C 52.393435 71.183497 52.486622 70.936796 52.615234 70.736328 C 52.740736 70.536154 52.898446 70.380202 53.085938 70.271484 C 53.273136 70.159656 53.480415 70.09283 53.710938 70.074219 z M 50.283203 70.291016 C 50.508039 70.282432 50.72235 70.318245 50.925781 70.404297 C 51.129093 70.487226 51.305064 70.620974 51.458984 70.802734 C 51.609782 70.984614 51.734797 71.217881 51.830078 71.501953 C 51.925359 71.786025 51.983145 72.125284 51.998047 72.515625 C 52.013068 72.909088 51.981549 73.2466 51.908203 73.537109 C 51.834857 73.827619 51.72829 74.070825 51.591797 74.263672 C 51.452181 74.456638 51.286122 74.599861 51.089844 74.701172 C 50.893446 74.79936 50.681867 74.854698 50.457031 74.863281 C 50.22595 74.872103 50.012689 74.833049 49.8125 74.75 C 49.612192 74.663829 49.435954 74.533442 49.285156 74.351562 C 49.131235 74.169803 49.006221 73.936535 48.914062 73.652344 C 48.818781 73.368272 48.764901 73.032919 48.75 72.642578 C 48.734979 72.249115 48.762591 71.90965 48.835938 71.619141 C 48.906042 71.325628 49.012728 71.083591 49.152344 70.890625 C 49.288836 70.697778 49.455163 70.551194 49.648438 70.453125 C 49.841592 70.351933 50.052002 70.296715 50.283203 70.291016 z M 44.361328 70.355469 L 44.814453 70.365234 L 44.720703 74.427734 C 45.213458 74.476598 45.476326 74.504607 45.513672 74.511719 C 45.569619 74.525511 45.599096 74.562517 45.597656 74.625 L 45.591797 74.875 L 43.193359 74.820312 L 43.197266 74.636719 L 43.199219 74.570312 C 43.200658 74.507829 43.229416 74.47402 43.289062 74.462891 L 44.164062 74.417969 L 44.234375 71.365234 C 44.236535 71.271509 44.241592 71.177566 44.25 71.083984 L 43.435547 71.75 C 43.394213 71.780306 43.356632 71.795714 43.322266 71.794922 C 43.253534 71.793338 43.20399 71.770239 43.173828 71.722656 L 43.003906 71.476562 L 44.361328 70.355469 z M 47.154297 70.386719 L 47.607422 70.386719 L 47.615234 74.449219 C 48.109052 74.485819 48.370692 74.50749 48.408203 74.513672 C 48.464476 74.526069 48.49598 74.5625 48.496094 74.625 L 48.496094 74.875 L 46.097656 74.878906 L 46.097656 74.695312 L 46.095703 74.628906 C 46.095589 74.566406 46.124242 74.532139 46.183594 74.519531 L 47.058594 74.453125 L 47.052734 71.400391 C 47.052564 71.306641 47.056421 71.212902 47.0625 71.119141 L 46.263672 71.804688 C 46.223104 71.836011 46.184766 71.851501 46.150391 71.851562 C 46.081641 71.851688 46.031335 71.830021 46 71.783203 L 45.826172 71.542969 L 47.154297 70.386719 z M 53.755859 70.542969 C 53.618967 70.555885 53.487717 70.59791 53.369141 70.671875 C 53.247453 70.746134 53.144285 70.855892 53.064453 71.007812 C 52.981216 71.156916 52.920998 71.350426 52.886719 71.585938 C 52.85244 71.821449 52.852476 72.110895 52.884766 72.453125 C 52.916762 72.792244 52.971104 73.075838 53.048828 73.300781 C 53.126552 73.525725 53.222081 73.701922 53.332031 73.835938 C 53.438576 73.967134 53.55993 74.05528 53.693359 74.105469 C 53.823678 74.155951 53.960764 74.175025 54.097656 74.162109 C 54.234548 74.149193 54.360734 74.105509 54.482422 74.03125 C 54.600998 73.957285 54.703872 73.846369 54.787109 73.697266 C 54.870053 73.545051 54.930565 73.354652 54.964844 73.119141 C 54.999123 72.883629 55.004653 72.594978 54.972656 72.255859 C 54.937255 71.913923 54.88241 71.631194 54.804688 71.40625 C 54.726964 71.181306 54.631141 71.001997 54.521484 70.871094 C 54.411535 70.737079 54.290474 70.646185 54.160156 70.595703 C 54.026727 70.545515 53.892751 70.530053 53.755859 70.542969 z M 50.300781 70.763672 C 50.163381 70.768917 50.030728 70.801918 49.908203 70.869141 C 49.782556 70.936483 49.674135 71.040278 49.585938 71.1875 C 49.494498 71.331718 49.422387 71.522632 49.375 71.755859 C 49.327613 71.989087 49.311105 72.277594 49.324219 72.621094 C 49.337213 72.961471 49.376376 73.247627 49.441406 73.476562 C 49.506437 73.705498 49.591071 73.885441 49.693359 74.025391 C 49.792406 74.162337 49.908648 74.258839 50.039062 74.316406 C 50.166356 74.374092 50.302053 74.399777 50.439453 74.394531 C 50.576853 74.389286 50.706384 74.352498 50.832031 74.285156 C 50.954556 74.217933 51.06481 74.114921 51.15625 73.970703 C 51.247571 73.823362 51.317847 73.635571 51.365234 73.402344 C 51.412622 73.169116 51.432916 72.881393 51.419922 72.541016 C 51.403686 72.197635 51.363859 71.910576 51.298828 71.681641 C 51.233797 71.452705 51.149044 71.267686 51.046875 71.130859 C 50.944587 70.99091 50.828465 70.895577 50.701172 70.837891 C 50.570756 70.780324 50.438181 70.758427 50.300781 70.763672 z "
       transform="translate(290,433.79077)"
       id="rect4136" />
    <text
       xml:space="preserve"
       style="font-style:normal;font-variant:normal;font-weight:normal;font-stretch:normal;font-size:6.25px;line-height:125%;font-family:Aleo;-inkscape-font-specification:Aleo;letter-spacing:0px;word-spacing:0px;fill:#000000;fill-opacity:1;stroke:none;stroke-width:1px;stroke-linecap:butt;stroke-linejoin:miter;stroke-opacity:1"
       x="323.58759"
       y="472.59976"
       id="text5356"
       sodipodi:linespacing="125%"><tspan
         sodipodi:role="line"
         id="tspan5358"
         x="323.58759"
         y="472.59976" /></text>
  </g>
</svg>
