<?xml version="1.0" encoding="UTF-8" standalone="no"?>
<!-- Created with Inkscape (http://www.inkscape.org/) -->

<svg
   xmlns:dc="http://purl.org/dc/elements/1.1/"
   xmlns:cc="http://creativecommons.org/ns#"
   xmlns:rdf="http://www.w3.org/1999/02/22-rdf-syntax-ns#"
   xmlns:svg="http://www.w3.org/2000/svg"
   xmlns="http://www.w3.org/2000/svg"
   xmlns:sodipodi="http://sodipodi.sourceforge.net/DTD/sodipodi-0.dtd"
   xmlns:inkscape="http://www.inkscape.org/namespaces/inkscape"
   width="120"
   height="120"
   viewBox="0 0 120 120"
   id="svg2"
   version="1.1"
   inkscape:version="0.91 r13725"
   sodipodi:docname="Pencil.svg">
  <title
     id="title4169">Pencil</title>
  <defs
     id="defs4" />
  <sodipodi:namedview
     id="base"
     pagecolor="#ffffff"
     bordercolor="#666666"
     borderopacity="1.0"
     inkscape:pageopacity="0.0"
     inkscape:pageshadow="2"
     inkscape:zoom="3.959798"
     inkscape:cx="9.5194598"
     inkscape:cy="69.91551"
     inkscape:document-units="px"
     inkscape:current-layer="layer1"
     showgrid="false"
     fit-margin-top="0"
     fit-margin-left="0"
     fit-margin-right="0"
     fit-margin-bottom="0"
     units="px"
     inkscape:window-width="1920"
     inkscape:window-height="1005"
     inkscape:window-x="-9"
     inkscape:window-y="-9"
     inkscape:window-maximized="1" />
  <metadata
     id="metadata7">
    <rdf:RDF>
      <cc:Work
         rdf:about="">
        <dc:format>image/svg+xml</dc:format>
        <dc:type
           rdf:resource="http://purl.org/dc/dcmitype/StillImage" />
        <dc:title>Pencil</dc:title>
        <cc:license
           rdf:resource="http://creativecommons.org/publicdomain/zero/1.0/" />
      </cc:Work>
      <cc:License
         rdf:about="http://creativecommons.org/publicdomain/zero/1.0/">
        <cc:permits
           rdf:resource="http://creativecommons.org/ns#Reproduction" />
        <cc:permits
           rdf:resource="http://creativecommons.org/ns#Distribution" />
        <cc:permits
           rdf:resource="http://creativecommons.org/ns#DerivativeWorks" />
      </cc:License>
    </rdf:RDF>
  </metadata>
  <g
     inkscape:label="Ebene 1"
     inkscape:groupmode="layer"
     id="layer1"
     transform="translate(-22.95519,-632.45723)">
    <path
       style="color:#000000;clip-rule:nonzero;display:inline;overflow:visible;visibility:visible;opacity:1;isolation:auto;mix-blend-mode:normal;color-interpolation:sRGB;color-interpolation-filters:linearRGB;solid-color:#000000;solid-opacity:1;fill:#000000;fill-opacity:1;fill-rule:nonzero;stroke:none;stroke-width:0.10629921;stroke-linecap:round;stroke-linejoin:round;stroke-miterlimit:4;stroke-dasharray:none;stroke-dashoffset:0;stroke-opacity:1;marker:none;color-rendering:auto;image-rendering:auto;shape-rendering:auto;text-rendering:auto;enable-background:accumulate"
       d="m 22.95519,632.45723 0,120 120,0 0,-120 -120,0 z m 87.31835,19.00391 c 0.71486,0.0267 1.50593,0.37787 2.41602,1.23828 2.42688,2.29443 8.47194,7.85903 9.94531,10.69727 1.47337,2.83825 0.30871,3.59469 -1.05664,4.90039 l -53.947259,51.58984 c -0.467471,0.44705 -1.591447,0.4144 -2.785156,0.7461 -3.564472,0.9905 -9.06791,2.5851 -13.81836,3.92187 l 0.05664,-2.58984 -1.410156,-0.0312 0.443359,-1.51953 -3.505859,-1.02344 c 1.774504,-4.45894 3.923494,-9.39444 5.425781,-12.43164 0.462025,-0.9341 0.740513,-1.77618 1.154297,-2.17188 l 53.947263,-51.58984 c 0.96372,-0.92163 1.94334,-1.7809 3.13476,-1.73633 z m -64.404288,69.79492 1.767578,0.51758 -0.615234,2.09961 2.019531,0.0449 -0.0293,1.20313 c -1.972847,0.5474 -3.744966,1.02884 -4.970703,1.32812 0.392334,-1.34347 1.061061,-3.19322 1.828125,-5.19336 z"
       id="rect4136"
       inkscape:connector-curvature="0" />
  </g>
</svg>
