<?xml version="1.0" encoding="UTF-8" standalone="no"?>
<!-- Created with Inkscape (http://www.inkscape.org/) -->

<svg
   xmlns:dc="http://purl.org/dc/elements/1.1/"
   xmlns:cc="http://creativecommons.org/ns#"
   xmlns:rdf="http://www.w3.org/1999/02/22-rdf-syntax-ns#"
   xmlns:svg="http://www.w3.org/2000/svg"
   xmlns="http://www.w3.org/2000/svg"
   xmlns:sodipodi="http://sodipodi.sourceforge.net/DTD/sodipodi-0.dtd"
   xmlns:inkscape="http://www.inkscape.org/namespaces/inkscape"
   width="184.52002mm"
   height="117.28465mm"
   viewBox="0 0 653.81109 415.57555"
   id="svg2"
   version="1.1"
   inkscape:version="0.91 r13725"
   sodipodi:docname="aufbau-server.svg">
  <defs
     id="defs4" />
  <sodipodi:namedview
     id="base"
     pagecolor="#ffffff"
     bordercolor="#666666"
     borderopacity="1.0"
     inkscape:pageopacity="0.0"
     inkscape:pageshadow="2"
     inkscape:zoom="0.98994949"
     inkscape:cx="306.29219"
     inkscape:cy="258.47867"
     inkscape:document-units="px"
     inkscape:current-layer="layer1"
     showgrid="false"
     inkscape:window-width="1920"
     inkscape:window-height="1005"
     inkscape:window-x="-9"
     inkscape:window-y="-9"
     inkscape:window-maximized="1"
     inkscape:snap-midpoints="true"
     inkscape:snap-smooth-nodes="true"
     inkscape:snap-object-midpoints="true"
     fit-margin-top="0"
     fit-margin-left="0"
     fit-margin-right="0"
     fit-margin-bottom="0"
     inkscape:object-nodes="true" />
  <metadata
     id="metadata7">
    <rdf:RDF>
      <cc:Work
         rdf:about="">
        <dc:format>image/svg+xml</dc:format>
        <dc:type
           rdf:resource="http://purl.org/dc/dcmitype/StillImage" />
        <dc:title></dc:title>
      </cc:Work>
    </rdf:RDF>
  </metadata>
  <g
     inkscape:label="Ebene 1"
     inkscape:groupmode="layer"
     id="layer1"
     transform="translate(-27.447795,-132.6556)">
    <path
       style="fill:#000000;fill-opacity:1"
       d="m 544.21593,326.58858 c -2.51831,0 -4.54688,2.02856 -4.54688,4.54687 l 0,87.69336 -32.51367,0 -43.75976,-74.27539 c -1.27832,-2.16974 -4.05292,-2.88769 -6.22266,-1.60938 -2.16975,1.27832 -2.8877,4.05292 -1.60938,6.22266 l 41.04102,69.66211 -17.0957,0 c -9.33314,0 -16.84571,7.51255 -16.84571,16.8457 l 0,50.61133 c 0,9.33315 7.51257,16.8457 16.84571,16.8457 l 131.24804,0 c 9.33314,0 16.84571,-7.51255 16.84571,-16.8457 l 0,-50.61133 c 0,-9.33315 -7.51257,-16.8457 -16.84571,-16.8457 l -18.92968,0 41.04101,-69.66211 c 1.27832,-2.16974 0.56037,-4.94434 -1.60937,-6.22266 -2.16975,-1.27831 -4.94629,-0.56036 -6.22461,1.60938 l -43.75977,74.27539 -32.51367,0 0,-87.69336 c 0,-2.51831 -2.02661,-4.54687 -4.54492,-4.54687 z m 48.82031,120.3125 0,17.19921 1.92188,-1.92187 c 0.70152,-0.70152 1.39299,-1.41491 2.07031,-2.14063 0.67733,-0.7257 1.31711,-1.41717 1.92187,-2.07031 0.60475,-0.67733 1.12708,-1.26934 1.5625,-1.77734 l 3.95508,0 c -0.55638,0.60476 -1.16131,1.27039 -1.81445,1.99609 -0.65313,0.72572 -1.33169,1.46298 -2.03321,2.21289 -0.70151,0.7257 -1.41686,1.46297 -2.14257,2.21289 -0.70152,0.72569 -1.36325,1.41717 -1.99219,2.07031 0.7257,0.55638 1.48492,1.24394 2.2832,2.06641 0.82247,0.82247 1.6224,1.71794 2.39649,2.68555 0.79828,0.94342 1.54652,1.91249 2.24804,2.9043 0.70152,0.96761 1.29549,1.87404 1.7793,2.7207 l -3.95508,0 c -0.50799,-0.84666 -1.10196,-1.70532 -1.77929,-2.57617 -0.65315,-0.89504 -1.3407,-1.74274 -2.06641,-2.54102 -0.7257,-0.82247 -1.46299,-1.57071 -2.21289,-2.24805 -0.7499,-0.67732 -1.46525,-1.24545 -2.14258,-1.70507 l 0,9.07031 -3.375,0 0,-27.57813 3.375,-0.58007 z m -31.75586,1.45312 c 0.60476,0 1.11611,0.20399 1.52734,0.61523 0.43543,0.38704 0.65235,0.92033 0.65235,1.59766 0,0.67733 -0.21691,1.22158 -0.65235,1.63281 -0.41122,0.38705 -0.92258,0.58008 -1.52734,0.58008 -0.60476,0 -1.12316,-0.19303 -1.55859,-0.58008 -0.41123,-0.41123 -0.61719,-0.95548 -0.61719,-1.63281 0,-0.67733 0.20596,-1.21062 0.61719,-1.59766 0.43543,-0.41124 0.95383,-0.61523 1.55859,-0.61523 z m -46.4375,1.30469 c 3.53178,0 6.24207,0.67854 8.12891,2.0332 1.91104,1.33046 2.86523,3.3254 2.86523,5.98633 0,1.45142 -0.26665,2.69615 -0.79883,3.73633 -0.508,1.01599 -1.25624,1.85076 -2.24804,2.5039 -0.96761,0.62895 -2.15361,1.08863 -3.55664,1.37891 -1.40304,0.29029 -2.98607,0.43555 -4.75196,0.43555 l -2.79492,0 0,9.32617 -3.51953,0 0,-24.7832 c 0.99181,-0.2419 2.09321,-0.40009 3.30273,-0.47266 1.2337,-0.0968 2.35706,-0.14453 3.37305,-0.14453 z m -29.76758,0.2539 19.33985,0 0,3.04688 -7.91211,0 0,22.09961 -3.51953,0 0,-22.09961 -7.90821,0 0,-3.04688 z m 55.9043,0 3.51953,0 0,22.09766 11.61133,0 0,3.04883 -15.13086,0 0,-25.14649 z m -25.84766,2.83008 c -1.49979,0 -2.64703,0.0348 -3.44531,0.10742 l 0,9.8711 2.64844,0 c 1.20951,0 2.29801,-0.0717 3.26562,-0.2168 0.96761,-0.16933 1.7785,-0.43599 2.43164,-0.79883 0.67733,-0.38706 1.19575,-0.9074 1.5586,-1.56054 0.36285,-0.65314 0.54687,-1.48792 0.54687,-2.50391 0,-0.96761 -0.19498,-1.76558 -0.58203,-2.39453 -0.36285,-0.62895 -0.8703,-1.12542 -1.52344,-1.48828 -0.62894,-0.38704 -1.36623,-0.65369 -2.21289,-0.79883 -0.84665,-0.14513 -1.74408,-0.2168 -2.6875,-0.2168 z m 61.20508,3.04688 c 1.4998,0 2.74648,0.21886 3.73828,0.65429 0.99181,0.41124 1.77686,1.00521 2.35742,1.7793 0.60475,0.7499 1.02959,1.65633 1.27149,2.7207 0.2419,1.06437 0.36133,2.2355 0.36133,3.51758 l 0,10.59766 -3.37305,0 0,-9.86914 c 0,-1.16113 -0.0865,-2.1541 -0.25586,-2.97656 -0.14514,-0.82247 -0.39691,-1.48811 -0.75976,-1.9961 -0.36285,-0.508 -0.84838,-0.87018 -1.45313,-1.08789 -0.60476,-0.24191 -1.353,-0.36328 -2.24805,-0.36328 -0.36285,0 -0.73795,0.0106 -1.125,0.0352 -0.38704,0.0242 -0.76215,0.061 -1.125,0.10937 -0.33867,0.0242 -0.65503,0.061 -0.94531,0.10938 -0.2661,0.0484 -0.45912,0.0851 -0.58008,0.10937 l 0,15.92969 -3.37304,0 0,-18.32422 c 0.7741,-0.19352 1.80189,-0.39947 3.08398,-0.61719 1.28208,-0.21771 2.75665,-0.32812 4.42578,-0.32812 z m -16.72461,0.40039 3.375,0 0,18.86914 -3.375,0 0,-18.86914 z m -31.58398,6.42187 8.96289,0 0,3.15625 -8.96289,0 0,-3.15625 z"
       id="rect3336"
       inkscape:connector-curvature="0" />
    <path
       id="path3367"
       d="m 134.31338,371.81123 c -13.71082,0 -24.74804,11.03918 -24.74804,24.75 l 0,81.82226 c 0,13.71082 11.03722,24.74805 24.74804,24.74805 l 132.33008,0 c 13.71081,0 24.74804,-11.03723 24.74804,-24.74805 l 0,-81.82226 c 0,-13.71082 -11.03723,-24.75 -24.74804,-24.75 l -132.33008,0 z m 76.41015,51.24609 0,22.83008 c -0.63999,0.18 -1.45898,0.35906 -2.45898,0.53906 -1,0.18 -2.15117,0.26953 -3.45117,0.26953 -1.19999,0 -2.28023,-0.18836 -3.24024,-0.56836 -0.96,-0.38 -1.77897,-0.92109 -2.45898,-1.62109 -0.68,-0.7 -1.20984,-1.54883 -1.58984,-2.54883 -0.36,-1.02 -0.54102,-2.15992 -0.54102,-3.41992 0,-1.2 0.15117,-2.30078 0.45117,-3.30078 0.32,-1 0.77891,-1.86008 1.37891,-2.58008 0.6,-0.72 1.32945,-1.27969 2.18945,-1.67969 0.88,-0.4 1.88,-0.59961 3,-0.59961 0.9,0 1.6911,0.11938 2.3711,0.35938 0.7,0.24 1.22054,0.46945 1.56054,0.68945 l 0,-7.88867 2.78906,-0.48047 z m -73.95898,2.00976 c 1.26,0 2.39992,0.13993 3.41992,0.41993 1.04,0.26 1.80125,0.54914 2.28125,0.86914 l -0.92969,2.37109 c -0.42,-0.26 -1.05062,-0.51 -1.89062,-0.75 -0.82,-0.26 -1.78086,-0.39062 -2.88086,-0.39062 -0.56,0 -1.07859,0.0597 -1.55859,0.17968 -0.48,0.12 -0.89977,0.30102 -1.25977,0.54102 -0.36,0.24 -0.65109,0.54969 -0.87109,0.92969 -0.2,0.36 -0.30078,0.78906 -0.30078,1.28906 0,0.56 0.11007,1.03016 0.33007,1.41016 0.22,0.38 0.53164,0.72148 0.93164,1.02148 0.40001,0.28 0.85891,0.5393 1.37891,0.7793 0.54,0.24 1.12953,0.4807 1.76953,0.7207 0.9,0.36 1.72094,0.72008 2.46094,1.08008 0.76,0.36 1.40922,0.78906 1.94922,1.28906 0.56,0.5 0.99101,1.10078 1.29101,1.80078 0.3,0.68 0.44922,1.51024 0.44922,2.49024 0,1.82 -0.66976,3.21922 -2.00976,4.19921 -1.32,0.98 -3.18938,1.47071 -5.60938,1.47071 -0.82,0 -1.58125,-0.0616 -2.28125,-0.18164 -0.68,-0.1 -1.29008,-0.21938 -1.83008,-0.35938 -0.54,-0.16 -1.0082,-0.32047 -1.4082,-0.48047 -0.38,-0.18 -0.68039,-0.32922 -0.90039,-0.44922 l 0.86914,-2.40039 c 0.46,0.26 1.15961,0.5511 2.09961,0.8711 0.94,0.32 2.09117,0.47851 3.45117,0.47851 3.04,0 4.5586,-1.03914 4.5586,-3.11914 0,-0.64 -0.13993,-1.18109 -0.41993,-1.62109 -0.26,-0.46 -0.62007,-0.84992 -1.08007,-1.16992 -0.46,-0.34 -0.98985,-0.62914 -1.58985,-0.86914 -0.58,-0.24 -1.19937,-0.48071 -1.85937,-0.72071 -0.76,-0.26 -1.48016,-0.54914 -2.16016,-0.86914 -0.68,-0.34 -1.26953,-0.72992 -1.76953,-1.16992 -0.5,-0.46 -0.89922,-1.00109 -1.19922,-1.62109 -0.28,-0.62 -0.42187,-1.37 -0.42187,-2.25 0,-1.82 0.62132,-3.23977 1.86132,-4.25977 1.24,-1.02 2.94891,-1.5293 5.12891,-1.5293 z m 128.38672,0.83985 0,4.83008 5.91016,0 0,2.33984 -5.91016,0 0,7.19922 c 0,0.78 0.0597,1.43117 0.17969,1.95117 0.12,0.5 0.30101,0.89922 0.54102,1.19922 0.24,0.28 0.53843,0.47961 0.89843,0.59961 0.36001,0.12 0.78173,0.18164 1.26173,0.18164 0.83999,0 1.50976,-0.0915 2.00976,-0.27148 0.52,-0.2 0.88008,-0.33993 1.08008,-0.41993 l 0.53906,2.31055 c -0.28,0.14 -0.7707,0.30977 -1.4707,0.50977 -0.7,0.22 -1.49844,0.33007 -2.39844,0.33007 -1.06,0 -1.94062,-0.13062 -2.64062,-0.39062 -0.68,-0.28 -1.23039,-0.68852 -1.65039,-1.22852 -0.42,-0.54 -0.72039,-1.20047 -0.90039,-1.98047 -0.16,-0.79999 -0.24024,-1.71976 -0.24024,-2.75976 l 0,-13.91992 2.79102,-0.48047 z m -94.57227,4.43945 c 2.1,0 3.70813,0.66047 4.82813,1.98047 1.12,1.3 1.68164,3.2907 1.68164,5.9707 l 0,0.47852 c 0,0.18 -0.0112,0.35172 -0.0312,0.51172 l -10.67969,0 c 0.12,1.62 0.59016,2.84945 1.41016,3.68945 0.82,0.84 2.09984,1.25977 3.83984,1.25977 0.98,0 1.80094,-0.0802 2.46094,-0.24024 0.68,-0.18 1.1893,-0.34976 1.5293,-0.50976 l 0.39062,2.33984 c -0.34,0.18 -0.94078,0.37031 -1.80078,0.57031 -0.84,0.2 -1.79891,0.29883 -2.87891,0.29883 -1.36,0 -2.54101,-0.19961 -3.54101,-0.59961 -0.98,-0.42 -1.78969,-0.98898 -2.42969,-1.70898 -0.64,-0.72 -1.11945,-1.57078 -1.43945,-2.55078 -0.3,-1 -0.45117,-2.08954 -0.45117,-3.26954 0,-1.37999 0.19961,-2.5796 0.59961,-3.5996 0.40001,-1.04 0.92985,-1.90008 1.58985,-2.58008 0.66,-0.68 1.42124,-1.19125 2.28125,-1.53125 0.86,-0.34 1.74062,-0.50977 2.64062,-0.50977 z m 16.75782,0 c 2.1,0 3.70812,0.66047 4.82812,1.98047 1.12001,1.3 1.68164,3.2907 1.68164,5.9707 l 0,0.47852 c 0,0.18 -0.0113,0.35172 -0.0312,0.51172 l -10.67969,0 c 0.12,1.62 0.59016,2.84945 1.41016,3.68945 0.82,0.84 2.09984,1.25977 3.83984,1.25977 0.98,0 1.80094,-0.0802 2.46094,-0.24024 0.68,-0.18 1.1893,-0.34976 1.5293,-0.50976 l 0.39062,2.33984 c -0.34,0.18 -0.94077,0.37031 -1.80078,0.57031 -0.84,0.2 -1.7989,0.29883 -2.87889,0.29883 -1.36001,0 -2.54103,-0.19961 -3.54103,-0.59961 -0.97999,-0.42 -1.78969,-0.98898 -2.42968,-1.70898 -0.64,-0.72 -1.11945,-1.57078 -1.43945,-2.55078 -0.3,-1 -0.45117,-2.08954 -0.45117,-3.26954 0,-1.37999 0.19961,-2.5796 0.59961,-3.5996 0.4,-1.04 0.92984,-1.90008 1.58984,-2.58008 0.66,-0.68 1.42125,-1.19125 2.28125,-1.53125 0.86,-0.34 1.74063,-0.50977 2.64063,-0.50977 z m 52.35742,0 c 1.06,0 2.03945,0.19961 2.93945,0.59961 0.9,0.38 1.67055,0.93039 2.31055,1.65039 0.66,0.72 1.1693,1.59133 1.52929,2.61133 0.36001,1 0.54102,2.11008 0.54102,3.33008 0,1.24 -0.18101,2.35937 -0.54102,3.35937 -0.35999,1 -0.86929,1.86008 -1.52929,2.58008 -0.64,0.72 -1.41055,1.27969 -2.31055,1.67969 -0.9,0.38 -1.87945,0.57031 -2.93945,0.57031 -1.06,0 -2.03946,-0.19031 -2.93945,-0.57031 -0.9,-0.4 -1.67985,-0.95969 -2.33985,-1.67969 -0.64,-0.72 -1.14,-1.58008 -1.5,-2.58008 -0.36,-1 -0.54101,-2.11937 -0.54101,-3.35937 0,-1.22 0.18101,-2.33008 0.54101,-3.33008 0.36,-1.02 0.86,-1.89133 1.5,-2.61133 0.66,-0.72 1.43984,-1.27039 2.33985,-1.65039 0.9,-0.4 1.87945,-0.59961 2.93945,-0.59961 z m -87.14063,0.0606 c 1.2,0 2.27828,0.19031 3.23828,0.57031 0.96,0.38 1.78094,0.91914 2.46094,1.61914 0.68,0.7 1.20055,1.56008 1.56055,2.58008 0.38,1 0.57031,2.13063 0.57031,3.39062 0,1.18 -0.16047,2.26954 -0.48047,3.26954 -0.3,1 -0.74961,1.86007 -1.34961,2.58007 -0.6,0.72 -1.3407,1.27969 -2.2207,1.67969 -0.86,0.4 -1.8507,0.59961 -2.9707,0.59961 -0.9,0 -1.70039,-0.11937 -2.40039,-0.35937 -0.68,-0.24 -1.1893,-0.46946 -1.5293,-0.68946 l 0,6.24024 -2.78906,0 0,-20.66992 c 0.66,-0.16 1.47898,-0.32977 2.45898,-0.50977 1,-0.2 2.15117,-0.30078 3.45117,-0.30078 z m 68.90625,0 c 1.2,0 2.27828,0.19031 3.23828,0.57031 0.96,0.38 1.78094,0.91914 2.46094,1.61914 0.68,0.7 1.20055,1.56008 1.56055,2.58008 0.38,1 0.57031,2.13063 0.57031,3.39062 0,1.18 -0.16047,2.26954 -0.48047,3.26954 -0.3,1 -0.74961,1.86007 -1.34961,2.58007 -0.6,0.72 -1.3407,1.27969 -2.2207,1.67969 -0.86,0.4 -1.8507,0.59961 -2.9707,0.59961 -0.9,0 -1.70039,-0.11937 -2.40039,-0.35937 -0.68,-0.24 -1.1893,-0.46946 -1.5293,-0.68946 l 0,6.24024 -2.78906,0 0,-20.66992 c 0.66,-0.16 1.47898,-0.32977 2.45898,-0.50977 1,-0.2 2.15117,-0.30078 3.45117,-0.30078 z m 35.24024,0 c 0.24,0 0.50859,0.0206 0.80859,0.0605 0.32,0.02 0.63164,0.0591 0.93164,0.11914 0.3,0.04 0.5686,0.0904 0.8086,0.15039 0.26,0.04 0.45031,0.0791 0.57031,0.11914 l -0.48047,2.43164 c -0.22,-0.08 -0.58938,-0.17149 -1.10938,-0.27149 -0.5,-0.12 -1.14921,-0.17968 -1.94921,-0.17968 -0.52,0 -1.04054,0.0597 -1.56055,0.17968 -0.5,0.1 -0.83024,0.17094 -0.99024,0.21094 l 0,13.10938 -2.78906,0 0,-14.93946 c 0.66,-0.24 1.47899,-0.46015 2.45899,-0.66015 0.98,-0.22 2.08078,-0.33008 3.30078,-0.33008 z m -86.15235,2.31055 c -0.64,0 -1.20898,0.12867 -1.70898,0.38867 -0.48,0.24 -0.89047,0.56094 -1.23047,0.96093 -0.34,0.40001 -0.61055,0.85891 -0.81055,1.37891 -0.18,0.52 -0.29937,1.0518 -0.35937,1.5918 l 7.74023,0 c 0.02,-1.26 -0.30093,-2.2918 -0.96093,-3.0918 -0.64,-0.82 -1.52993,-1.22851 -2.66993,-1.22851 z m 16.75782,0 c -0.63999,0 -1.20899,0.12867 -1.70899,0.38867 -0.48,0.24 -0.89047,0.56094 -1.23047,0.96093 -0.34,0.40001 -0.61053,0.85891 -0.81054,1.37891 -0.18,0.52 -0.29938,1.0518 -0.35938,1.5918 l 7.74024,0 c 0.02,-1.26 -0.30093,-2.2918 -0.96093,-3.0918 -0.64,-0.82 -1.52992,-1.22851 -2.66992,-1.22851 z m 52.38867,0.0898 c -1.36,0 -2.44024,0.52055 -3.24024,1.56055 -0.78,1.02 -1.16992,2.40992 -1.16992,4.16992 0,1.76 0.38992,3.15922 1.16992,4.19922 0.8,1.02 1.88024,1.52929 3.24024,1.52929 1.36,0 2.43094,-0.50929 3.21094,-1.52929 0.8,-1.04 1.19921,-2.43922 1.19921,-4.19922 0,-1.76 -0.39921,-3.14992 -1.19921,-4.16992 -0.78,-1.04 -1.85094,-1.56055 -3.21094,-1.56055 z m -35.33008,0.0293 c -0.8,0 -1.49031,0.15117 -2.07031,0.45117 -0.56,0.28 -1.02086,0.67922 -1.38086,1.19922 -0.36,0.5 -0.6193,1.10078 -0.7793,1.80078 -0.16,0.7 -0.24023,1.45 -0.24023,2.25 0,1.82 0.44961,3.22851 1.34961,4.22851 0.9,0.98 2.10156,1.47071 3.60156,1.47071 0.76,0 1.38867,-0.0299 1.88867,-0.0899 0.52,-0.08 0.92117,-0.16023 1.20117,-0.24023 l 0,-9.86914 c -0.34,-0.28 -0.8307,-0.55055 -1.4707,-0.81055 -0.64,-0.26 -1.33961,-0.39062 -2.09961,-0.39062 z m -51.8418,0.0605 c -0.84,0 -1.50047,0.0299 -1.98047,0.0899 -0.46,0.06 -0.82937,0.12898 -1.10937,0.20898 l 0,9.8418 c 0.34,0.28 0.8307,0.54859 1.4707,0.80859 0.64,0.26 1.33961,0.39063 2.09961,0.39063 0.8,0 1.47906,-0.13992 2.03906,-0.41993 0.58,-0.29999 1.05016,-0.69921 1.41016,-1.19921 0.36,-0.52 0.62125,-1.12078 0.78125,-1.80079 0.16,-0.7 0.24024,-1.44999 0.24023,-2.25 0,-1.81999 -0.45156,-3.21921 -1.35156,-4.19921 -0.9,-0.98 -2.09961,-1.47071 -3.59961,-1.47071 z m 68.90625,0 c -0.84,0 -1.50047,0.0299 -1.98047,0.0899 -0.46,0.06 -0.82937,0.12898 -1.10937,0.20898 l 0,9.8418 c 0.34,0.28 0.8307,0.54859 1.4707,0.80859 0.64,0.26 1.33961,0.39063 2.09961,0.39063 0.8,0 1.47906,-0.13992 2.03906,-0.41993 0.58,-0.29999 1.05016,-0.69921 1.41016,-1.19921 0.36,-0.52 0.62125,-1.12078 0.78125,-1.80079 0.16,-0.7 0.24024,-1.44999 0.24024,-2.25 0,-1.81999 -0.45157,-3.21921 -1.35157,-4.19921 -0.9,-0.98 -2.09961,-1.47071 -3.59961,-1.47071 z"
       style="fill:#000000;fill-opacity:1"
       inkscape:connector-curvature="0" />
    <rect
       style="fill:#000000;fill-opacity:1;stroke:#ffffff;stroke-width:3;stroke-linejoin:round;stroke-miterlimit:4;stroke-dasharray:none;stroke-opacity:1"
       id="rect3369"
       width="15"
       height="24.27051"
       x="241.78571"
       y="494.86218"
       ry="0" />
    <rect
       ry="0"
       y="494.86218"
       x="489.64285"
       height="24.27051"
       width="15"
       id="rect4182"
       style="fill:#000000;fill-opacity:1;stroke:#ffffff;stroke-width:3;stroke-linejoin:round;stroke-miterlimit:4;stroke-dasharray:none;stroke-opacity:1" />
    <text
       xml:space="preserve"
       style="font-style:normal;font-weight:normal;font-size:20px;line-height:125%;font-family:sans-serif;letter-spacing:0px;word-spacing:0px;fill:#000000;fill-opacity:1;stroke:none;stroke-width:1px;stroke-linecap:butt;stroke-linejoin:miter;stroke-opacity:1"
       x="353.84467"
       y="539.86194"
       id="text4186"
       sodipodi:linespacing="125%"><tspan
         sodipodi:role="line"
         id="tspan4188"
         x="353.84467"
         y="539.86194"
         style="font-style:normal;font-variant:normal;font-weight:normal;font-stretch:normal;font-family:Ubuntu;-inkscape-font-specification:Ubuntu">LAN</tspan></text>
    <rect
       style="fill:#000000;fill-opacity:1;stroke:#ffffff;stroke-width:3;stroke-linejoin:round;stroke-miterlimit:4;stroke-dasharray:none;stroke-opacity:1"
       id="rect4190"
       width="15"
       height="24.27051"
       x="144.17067"
       y="494.86218"
       ry="0" />
    <path
       sodipodi:nodetypes="ccc"
       inkscape:connector-curvature="0"
       id="path4192"
       d="m 28.947795,546.73115 122.723325,0 0,-27.59846"
       style="fill:none;fill-rule:evenodd;stroke:#000000;stroke-width:3;stroke-linecap:square;stroke-linejoin:miter;stroke-miterlimit:4;stroke-dasharray:none;stroke-opacity:1" />
    <text
       xml:space="preserve"
       style="font-style:normal;font-weight:normal;font-size:20px;line-height:125%;font-family:sans-serif;letter-spacing:0px;word-spacing:0px;fill:#000000;fill-opacity:1;stroke:none;stroke-width:1px;stroke-linecap:butt;stroke-linejoin:miter;stroke-opacity:1"
       x="52.464928"
       y="539.74194"
       id="text4200"
       sodipodi:linespacing="125%"><tspan
         sodipodi:role="line"
         id="tspan4202"
         x="52.464928"
         y="539.74194"
         style="font-style:normal;font-variant:normal;font-weight:normal;font-stretch:normal;font-family:Ubuntu;-inkscape-font-specification:Ubuntu">Internet</tspan></text>
    <g
       id="g4212"
       transform="translate(36.355519,103.42065)">
      <circle
         r="48.312008"
         cy="239.52339"
         cx="594.90338"
         id="path4204"
         style="fill:none;fill-opacity:1;stroke:#000000;stroke-width:3.37598443;stroke-linecap:square;stroke-linejoin:round;stroke-miterlimit:4;stroke-dasharray:none;stroke-opacity:1" />
      <circle
         style="fill:none;fill-opacity:1;stroke:#000000;stroke-width:3.37598443;stroke-linecap:square;stroke-linejoin:round;stroke-miterlimit:4;stroke-dasharray:none;stroke-opacity:1"
         id="circle4208"
         cx="594.90338"
         cy="239.52339"
         r="38.312008" />
      <circle
         r="28.312008"
         cy="239.52339"
         cx="594.90338"
         id="circle4210"
         style="fill:none;fill-opacity:1;stroke:#000000;stroke-width:3.37598419;stroke-linecap:square;stroke-linejoin:round;stroke-miterlimit:4;stroke-dasharray:none;stroke-opacity:1" />
    </g>
    <g
       transform="translate(-394.42496,132.28784)"
       id="g4217">
      <circle
         style="fill:none;fill-opacity:1;stroke:#000000;stroke-width:3.37598443;stroke-linecap:square;stroke-linejoin:round;stroke-miterlimit:4;stroke-dasharray:none;stroke-opacity:1"
         id="circle4219"
         cx="594.90338"
         cy="239.52339"
         r="48.312008" />
      <circle
         r="38.312008"
         cy="239.52339"
         cx="594.90338"
         id="circle4221"
         style="fill:none;fill-opacity:1;stroke:#000000;stroke-width:3.37598443;stroke-linecap:square;stroke-linejoin:round;stroke-miterlimit:4;stroke-dasharray:none;stroke-opacity:1" />
      <circle
         style="fill:none;fill-opacity:1;stroke:#000000;stroke-width:3.37598419;stroke-linecap:square;stroke-linejoin:round;stroke-miterlimit:4;stroke-dasharray:none;stroke-opacity:1"
         id="circle4223"
         cx="594.90338"
         cy="239.52339"
         r="28.312008" />
    </g>
    <text
       xml:space="preserve"
       style="font-style:normal;font-weight:normal;font-size:20px;line-height:125%;font-family:sans-serif;letter-spacing:0px;word-spacing:0px;fill:#000000;fill-opacity:1;stroke:none;stroke-width:1px;stroke-linecap:butt;stroke-linejoin:miter;stroke-opacity:1"
       x="148.40553"
       y="314.48767"
       id="text4237"
       sodipodi:linespacing="125%"><tspan
         id="tspan4239"
         sodipodi:role="line"
         x="148.40553"
         y="314.48767"
         style="font-style:normal;font-variant:normal;font-weight:normal;font-stretch:normal;font-family:Ubuntu;-inkscape-font-specification:Ubuntu">Heim-WLAN</tspan></text>
    <text
       sodipodi:linespacing="125%"
       id="text4241"
       y="286.42047"
       x="592.8775"
       style="font-style:normal;font-weight:normal;font-size:20px;line-height:125%;font-family:sans-serif;letter-spacing:0px;word-spacing:0px;fill:#000000;fill-opacity:1;stroke:none;stroke-width:1px;stroke-linecap:butt;stroke-linejoin:miter;stroke-opacity:1"
       xml:space="preserve"><tspan
         style="font-style:normal;font-variant:normal;font-weight:normal;font-stretch:normal;font-family:Ubuntu;-inkscape-font-specification:Ubuntu"
         y="286.42047"
         x="592.8775"
         sodipodi:role="line"
         id="tspan4243">Freifunk</tspan></text>
    <g
       id="g4176"
       transform="translate(-181.78292,-25.415036)">
      <circle
         r="48.312008"
         cy="239.52339"
         cx="594.90338"
         id="circle4178"
         style="fill:none;fill-opacity:1;stroke:#000000;stroke-width:3.37598443;stroke-linecap:square;stroke-linejoin:round;stroke-miterlimit:4;stroke-dasharray:none;stroke-opacity:1" />
      <circle
         style="fill:none;fill-opacity:1;stroke:#000000;stroke-width:3.37598443;stroke-linecap:square;stroke-linejoin:round;stroke-miterlimit:4;stroke-dasharray:none;stroke-opacity:1"
         id="circle4180"
         cx="594.90338"
         cy="239.52339"
         r="38.312008" />
      <circle
         r="28.312008"
         cy="239.52339"
         cx="594.90338"
         id="circle4182"
         style="fill:none;fill-opacity:1;stroke:#000000;stroke-width:3.37598419;stroke-linecap:square;stroke-linejoin:round;stroke-miterlimit:4;stroke-dasharray:none;stroke-opacity:1" />
    </g>
    <rect
       style="fill:#ffffff;fill-opacity:1;stroke:#000000;stroke-width:3;stroke-linecap:square;stroke-linejoin:round;stroke-miterlimit:4;stroke-dasharray:none;stroke-opacity:1"
       id="rect4192"
       width="125.35714"
       height="57.5"
       x="280.9574"
       y="154.0894" />
    <path
       inkscape:connector-curvature="0"
       style="fill:#000000;fill-opacity:1"
       d="m 293.06628,132.6556 c -10.47913,0 -18.91484,8.4372 -18.91484,18.91633 l 0,62.53643 c 0,10.47913 8.43571,18.91483 18.91484,18.91483 l 101.13934,0 c 10.47913,0 18.91484,-8.4357 18.91484,-18.91483 l 0,-62.53643 c 0,-10.47913 -8.43571,-18.91633 -18.91484,-18.91633 z"
       id="path4162"
       sodipodi:nodetypes="sssssssss" />
    <rect
       style="fill:#000000;fill-opacity:1;stroke:#ffffff;stroke-width:3;stroke-linejoin:round;stroke-miterlimit:4;stroke-dasharray:none;stroke-opacity:1"
       id="rect4202"
       width="15"
       height="24.27051"
       x="316.9072"
       y="222.10069"
       ry="0" />
    <text
       xml:space="preserve"
       style="font-style:normal;font-weight:normal;font-size:20px;line-height:125%;font-family:sans-serif;letter-spacing:0px;word-spacing:0px;fill:#ffffff;fill-opacity:1;stroke:none;stroke-width:1px;stroke-linecap:butt;stroke-linejoin:miter;stroke-opacity:1"
       x="293.44308"
       y="193.75981"
       id="text4164"
       sodipodi:linespacing="125%"><tspan
         sodipodi:role="line"
         id="tspan4166"
         x="293.44308"
         y="193.75981"
         style="font-size:30px;fill:#ffffff">Server</tspan></text>
    <text
       xml:space="preserve"
       style="font-style:normal;font-weight:normal;font-size:20px;line-height:125%;font-family:sans-serif;letter-spacing:0px;word-spacing:0px;fill:#000000;fill-opacity:1;stroke:none;stroke-width:1px;stroke-linecap:butt;stroke-linejoin:miter;stroke-opacity:1"
       x="382.26071"
       y="286.92554"
       id="text4188"
       sodipodi:linespacing="125%"><tspan
         id="tspan4190"
         sodipodi:role="line"
         x="382.26071"
         y="286.92554"
         style="font-style:normal;font-variant:normal;font-weight:normal;font-stretch:normal;font-family:Ubuntu;-inkscape-font-specification:Ubuntu">Freifunk</tspan></text>
    <rect
       ry="0"
       y="494.86218"
       x="217.78571"
       height="24.27051"
       width="15"
       id="rect4198"
       style="fill:#000000;fill-opacity:1;stroke:#ffffff;stroke-width:3;stroke-linejoin:round;stroke-miterlimit:4;stroke-dasharray:none;stroke-opacity:1" />
    <path
       sodipodi:nodetypes="cccc"
       inkscape:connector-curvature="0"
       id="path4200"
       d="m 225.28571,519.13269 0,27.59846 271.85758,0 0,-27.59846"
       style="fill:none;fill-rule:evenodd;stroke:#000000;stroke-width:3;stroke-linecap:square;stroke-linejoin:miter;stroke-miterlimit:4;stroke-dasharray:none;stroke-opacity:1" />
    <path
       style="fill:none;fill-rule:evenodd;stroke:#000000;stroke-width:3;stroke-linecap:square;stroke-linejoin:miter;stroke-miterlimit:4;stroke-dasharray:none;stroke-opacity:1"
       d="m 249.28572,519.13269 0,13.79923 75.12148,0 0,-288.56072"
       id="path4184"
       inkscape:connector-curvature="0"
       sodipodi:nodetypes="cccc" />
    <text
       sodipodi:linespacing="125%"
       id="text4204"
       y="395.58157"
       x="329.60101"
       style="font-style:normal;font-weight:normal;font-size:20px;line-height:125%;font-family:sans-serif;letter-spacing:0px;word-spacing:0px;fill:#000000;fill-opacity:1;stroke:none;stroke-width:1px;stroke-linecap:butt;stroke-linejoin:miter;stroke-opacity:1"
       xml:space="preserve"><tspan
         style="font-style:normal;font-variant:normal;font-weight:normal;font-stretch:normal;font-family:Ubuntu;-inkscape-font-specification:Ubuntu"
         y="395.58157"
         x="329.60101"
         id="tspan4206"
         sodipodi:role="line">LAN</tspan></text>
  </g>
</svg>
