<?xml version="1.0" encoding="UTF-8" standalone="no"?>
<!-- Created with Inkscape (http://www.inkscape.org/) -->

<svg
   xmlns:dc="http://purl.org/dc/elements/1.1/"
   xmlns:cc="http://creativecommons.org/ns#"
   xmlns:rdf="http://www.w3.org/1999/02/22-rdf-syntax-ns#"
   xmlns:svg="http://www.w3.org/2000/svg"
   xmlns="http://www.w3.org/2000/svg"
   xmlns:xlink="http://www.w3.org/1999/xlink"
   xmlns:sodipodi="http://sodipodi.sourceforge.net/DTD/sodipodi-0.dtd"
   xmlns:inkscape="http://www.inkscape.org/namespaces/inkscape"
   width="244.85263mm"
   height="137.41217mm"
   viewBox="0 0 867.58806 486.89352"
   id="svg2"
   version="1.1"
   inkscape:version="0.91 r13725"
   sodipodi:docname="Outline.svg">
  <defs
     id="defs4">
    <marker
       inkscape:stockid="Arrow1Lend"
       orient="auto"
       refY="0"
       refX="0"
       id="Arrow1Lend"
       style="overflow:visible"
       inkscape:isstock="true">
      <path
         id="path4327"
         d="M 0,0 5,-5 -12.5,0 5,5 0,0 Z"
         style="fill:#000000;fill-opacity:1;fill-rule:evenodd;stroke:#000000;stroke-width:1pt;stroke-opacity:1"
         transform="matrix(-0.8,0,0,-0.8,-10,0)"
         inkscape:connector-curvature="0" />
    </marker>
  </defs>
  <sodipodi:namedview
     id="base"
     pagecolor="#ffffff"
     bordercolor="#666666"
     borderopacity="1.0"
     inkscape:pageopacity="0.0"
     inkscape:pageshadow="2"
     inkscape:zoom="1.4"
     inkscape:cx="325.05157"
     inkscape:cy="210.70474"
     inkscape:document-units="px"
     inkscape:current-layer="layer1"
     showgrid="false"
     inkscape:snap-smooth-nodes="false"
     inkscape:snap-midpoints="true"
     inkscape:snap-center="false"
     inkscape:window-width="1920"
     inkscape:window-height="1005"
     inkscape:window-x="-9"
     inkscape:window-y="-9"
     inkscape:window-maximized="1"
     fit-margin-top="0"
     fit-margin-left="0"
     fit-margin-right="0"
     fit-margin-bottom="0"
     inkscape:snap-nodes="false"
     inkscape:snap-others="false" />
  <metadata
     id="metadata7">
    <rdf:RDF>
      <cc:Work
         rdf:about="">
        <dc:format>image/svg+xml</dc:format>
        <dc:type
           rdf:resource="http://purl.org/dc/dcmitype/StillImage" />
        <dc:title />
      </cc:Work>
    </rdf:RDF>
  </metadata>
  <g
     inkscape:label="Ebene 1"
     inkscape:groupmode="layer"
     id="layer1"
     transform="translate(38.385788,-147.28908)">
    <circle
       style="opacity:0.3;fill:#0044aa;fill-opacity:1;stroke:none;stroke-width:4;stroke-linecap:square;stroke-linejoin:round;stroke-miterlimit:4;stroke-dasharray:none;stroke-opacity:1"
       id="path4176"
       cx="205.06097"
       cy="390.73584"
       r="243.44676" />
    <circle
       r="243.44676"
       cy="390.73584"
       cx="585.75549"
       id="circle4178"
       style="opacity:0.3;fill:#800000;fill-opacity:1;stroke:none;stroke-width:4;stroke-linecap:square;stroke-linejoin:round;stroke-miterlimit:4;stroke-dasharray:none;stroke-opacity:1" />
    <g
       id="g4170"
       transform="translate(226.27419,234.80922)"
       style="fill:#800000">
      <path
         inkscape:connector-curvature="0"
         id="rect4142"
         d="m 297.42271,167.75391 c -6.72714,0 -12.14258,5.41543 -12.14258,12.14257 l 0,24.20313 c 0,6.72714 5.41544,12.14258 12.14258,12.14258 l 124.11719,0 c 6.72714,0 12.14258,-5.41544 12.14258,-12.14258 l 0,-24.20313 c 0,-6.72714 -5.41544,-12.14257 -12.14258,-12.14257 l -124.11719,0 z m 102.68945,14.78906 c 1.88802,0 3.39454,0.472 4.51758,1.41601 1.12305,0.94401 1.6836,2.20638 1.6836,3.78516 0,0.7487 -0.14291,1.46126 -0.42774,2.13672 -0.27669,0.66732 -0.78483,1.45573 -1.52539,2.36719 -0.20345,0.236 -0.85091,0.91959 -1.94141,2.05078 -1.09049,1.12305 -2.6276,2.69824 -4.61328,4.72461 l 8.60547,0 0,2.07422 -11.57226,0 0,-2.07422 c 0.93587,-0.96843 2.20898,-2.26693 3.82031,-3.89453 1.61946,-1.63575 2.63769,-2.69011 3.05273,-3.16211 0.78939,-0.88705 1.3392,-1.63575 1.64844,-2.2461 0.31738,-0.61849 0.47461,-1.22428 0.47461,-1.81836 0,-0.96842 -0.3418,-1.75683 -1.02539,-2.36718 -0.67546,-0.61036 -1.55794,-0.91602 -2.64844,-0.91602 -0.77311,0 -1.59049,0.13379 -2.45312,0.40234 -0.8545,0.26856 -1.76953,0.67546 -2.7461,1.22071 l 0,-2.49024 c 0.99284,-0.39876 1.92058,-0.69889 2.78321,-0.90234 0.86263,-0.20345 1.65104,-0.30664 2.36718,-0.30664 z m -87.56054,0.33008 5.5664,0 c 2.08334,0 3.63672,0.43587 4.66211,1.30664 1.02539,0.87077 1.53906,2.18554 1.53906,3.94336 0,1.14746 -0.26953,2.09863 -0.80664,2.85547 -0.52897,0.75683 -1.3011,1.28125 -2.31836,1.57421 0.52898,0.17904 1.0407,0.5625 1.53711,1.14844 0.50456,0.58594 1.00912,1.39063 1.51368,2.41602 l 2.5039,4.98047 -2.65039,0 -2.33008,-4.67383 c -0.60221,-1.22071 -1.18815,-2.03093 -1.75781,-2.42969 -0.56152,-0.39876 -1.33203,-0.59766 -2.30859,-0.59766 l -2.68555,0 0,7.70118 -2.46484,0 0,-18.22461 z m 47.27734,0.67187 2.25781,0 0,3.88086 4.62696,0 0,1.7461 -4.62696,0 0,7.42187 c 0,1.11491 0.15202,1.83105 0.45313,2.14844 0.30924,0.31738 0.93131,0.47656 1.86719,0.47656 l 2.30664,0 0,1.87891 -2.30664,0 c -1.7334,0 -2.93067,-0.31999 -3.58985,-0.96289 -0.65918,-0.65105 -0.98828,-1.83204 -0.98828,-3.54102 l 0,-7.42187 -1.64844,0 0,-1.7461 1.64844,0 0,-3.88086 z m -44.8125,1.35547 0,6.46875 3.10156,0 c 1.18815,0 2.08334,-0.27311 2.68555,-0.81836 0.61035,-0.55338 0.91602,-1.36165 0.91602,-2.42773 0,-1.06608 -0.30567,-1.86914 -0.91602,-2.40625 -0.60221,-0.54525 -1.4974,-0.81641 -2.68555,-0.81641 l -3.10156,0 z m 18.99414,2.19727 c 1.95313,0 3.48861,0.63476 4.60352,1.90429 1.11491,1.26953 1.67187,3.02735 1.67187,5.27344 0,2.23796 -0.55696,3.99577 -1.67187,5.27344 -1.11491,1.26953 -2.65039,1.90429 -4.60352,1.90429 -1.96126,0 -3.49837,-0.63476 -4.61328,-1.90429 -1.10677,-1.27767 -1.66016,-3.03548 -1.66016,-5.27344 0,-2.24609 0.55339,-4.00391 1.66016,-5.27344 1.11491,-1.26953 2.65202,-1.90429 4.61328,-1.90429 z m 41.39453,0 c 1.8392,0 3.29134,0.5931 4.35742,1.78125 1.07422,1.18001 1.61133,2.78776 1.61133,4.82226 l 0,1.09766 -10.32617,0 c 0.0977,1.54622 0.56055,2.72721 1.39063,3.54101 0.83821,0.80567 2.00293,1.20899 3.49218,1.20899 0.86263,0 1.69629,-0.10677 2.50196,-0.31836 0.8138,-0.21159 1.62044,-0.528 2.41797,-0.95117 l 0,2.12304 c -0.80567,0.3418 -1.63217,0.60222 -2.47852,0.78125 -0.84635,0.17904 -1.7054,0.26953 -2.57617,0.26953 -2.18099,0 -3.90983,-0.63476 -5.1875,-1.90429 -1.26953,-1.26953 -1.9043,-2.98763 -1.9043,-5.15235 0,-2.23795 0.60221,-4.01204 1.80664,-5.32226 1.21257,-1.31836 2.84375,-1.97656 4.89453,-1.97656 z m 16.43164,0 c 0.15463,0 0.32455,0.0107 0.51172,0.0352 0.18718,0.0163 0.39518,0.0452 0.62305,0.0859 l 0.0117,2.30664 c -0.25228,-0.14648 -0.52897,-0.2513 -0.83008,-0.31641 -0.29297,-0.0732 -0.61849,-0.10937 -0.97656,-0.10937 -1.26953,0 -2.2461,0.41406 -2.92969,1.24414 -0.67546,0.82194 -1.01367,2.00651 -1.01367,3.55273 l 0,7.20118 -2.25781,0 0,-13.67188 2.25781,0 0,2.125 c 0.472,-0.83008 1.08691,-1.44499 1.84375,-1.84375 0.75683,-0.4069 1.67741,-0.60937 2.75976,-0.60937 z m -48.07226,0.32812 2.24609,0 0,8.19141 c 0,1.29394 0.25326,2.26692 0.75781,2.91797 0.50456,0.6429 1.26042,0.96484 2.26954,0.96484 1.21256,0 2.16927,-0.38704 2.86914,-1.16016 0.708,-0.77311 1.0625,-1.82747 1.0625,-3.16211 l 0,-7.75195 2.24609,0 0,13.67188 -2.24609,0 0,-2.09961 c -0.54525,0.83007 -1.18002,1.44856 -1.9043,1.85547 -0.71615,0.39876 -1.55176,0.5996 -2.50391,0.5996 -1.57064,0 -2.76237,-0.48828 -3.57617,-1.46484 -0.8138,-0.97656 -1.2207,-2.40527 -1.2207,-4.28516 l 0,-8.27734 z m -9.75391,1.57617 c -1.20443,0 -2.1556,0.47201 -2.85547,1.41602 -0.69987,0.93587 -1.05078,2.22168 -1.05078,3.85742 0,1.63574 0.34733,2.92513 1.03906,3.86914 0.69987,0.93587 1.65463,1.4043 2.86719,1.4043 1.19629,0 2.14583,-0.47201 2.8457,-1.41602 0.69987,-0.94401 1.04883,-2.22982 1.04883,-3.85742 0,-1.61947 -0.34896,-2.90169 -1.04883,-3.8457 -0.69987,-0.95215 -1.64941,-1.42774 -2.8457,-1.42774 z m 41.41992,0 c -1.25325,0 -2.25879,0.35254 -3.01562,1.06055 -0.7487,0.70801 -1.18099,1.70638 -1.29492,2.99219 l 8.00781,-0.0137 c -0.0163,-1.22885 -0.36165,-2.20899 -1.03711,-2.94141 -0.66732,-0.73242 -1.55339,-1.09766 -2.66016,-1.09766 z"
         style="opacity:1;fill:#800000;fill-opacity:1;stroke:none;stroke-width:4;stroke-linecap:square;stroke-linejoin:round;stroke-miterlimit:4;stroke-dasharray:none;stroke-opacity:1" />
      <rect
         inkscape:transform-center-x="20.535711"
         transform="matrix(0.8660254,-0.5,0.5,0.8660254,0,0)"
         inkscape:transform-center-y="-35.568895"
         ry="12.1429"
         rx="12.1429"
         y="239.57292"
         x="198.50595"
         height="82.14286"
         width="6.4285712"
         id="rect4152"
         style="opacity:1;fill:#800000;fill-opacity:1;stroke:none;stroke-width:4;stroke-linecap:square;stroke-linejoin:round;stroke-miterlimit:4;stroke-dasharray:none;stroke-opacity:1" />
      <rect
         inkscape:transform-center-x="-20.535717"
         transform="matrix(0.8660254,0.5,-0.5,0.8660254,0,0)"
         inkscape:transform-center-y="-35.568891"
         style="opacity:1;fill:#800000;fill-opacity:1;stroke:none;stroke-width:4;stroke-linecap:square;stroke-linejoin:round;stroke-miterlimit:4;stroke-dasharray:none;stroke-opacity:1"
         id="rect4154"
         width="6.4285712"
         height="82.14286"
         x="417.70538"
         y="-119.90839"
         rx="12.1429"
         ry="12.1429" />
      <rect
         ry="12.1429"
         rx="12.1429"
         y="95.611053"
         x="356.26703"
         height="82.14286"
         width="6.4285712"
         id="rect4156"
         style="opacity:1;fill:#800000;fill-opacity:1;stroke:none;stroke-width:4;stroke-linecap:square;stroke-linejoin:round;stroke-miterlimit:4;stroke-dasharray:none;stroke-opacity:1" />
    </g>
    <g
       id="g4164"
       transform="translate(22.722804,234.80921)"
       style="fill:#0044aa">
      <path
         inkscape:connector-curvature="0"
         id="rect4136"
         d="m 120.27958,167.75391 c -6.72714,0 -12.14258,5.41543 -12.14258,12.14257 l 0,24.20313 c 0,6.72714 5.41544,12.14258 12.14258,12.14258 l 124.11719,0 c 6.72714,0 12.14257,-5.41544 12.14257,-12.14258 l 0,-24.20313 c 0,-6.72714 -5.41543,-12.14257 -12.14257,-12.14257 l -124.11719,0 z m 15.03125,14.95507 5.56641,0 c 2.08333,0 3.63671,0.43588 4.6621,1.30664 1.0254,0.87077 1.53907,2.1836 1.53907,3.94141 0,1.14746 -0.26953,2.10059 -0.80664,2.85742 -0.52898,0.75684 -1.30111,1.28125 -2.31836,1.57422 0.52897,0.17904 1.04069,0.5625 1.53711,1.14844 0.50455,0.58594 1.00911,1.39062 1.51367,2.41601 l 2.5039,4.98047 -2.65039,0 -2.33007,-4.67578 c -0.60222,-1.2207 -1.18816,-2.02897 -1.75782,-2.42773 -0.56152,-0.39876 -1.33203,-0.59961 -2.30859,-0.59961 l -2.68555,0 0,7.70312 -2.46484,0 0,-18.22461 z m 87.56055,0 2.46679,0 0,16.1504 4.02735,0 0,2.07421 -10.49805,0 0,-2.07421 4.0293,0 0,-13.9043 -4.38282,0.8789 0,-2.24609 4.35743,-0.87891 z m -40.28321,0.67188 2.25781,0 0,3.88086 4.62696,0 0,1.74609 -4.62696,0 0,7.42188 c 0,1.11491 0.15202,1.83105 0.45313,2.14843 0.30924,0.31739 0.93132,0.47657 1.86719,0.47657 l 2.30664,0 0,1.8789 -2.30664,0 c -1.7334,0 -2.93067,-0.32194 -3.58985,-0.96484 -0.65918,-0.65104 -0.98828,-1.83008 -0.98828,-3.53906 l 0,-7.42188 -1.64843,0 0,-1.74609 1.64843,0 0,-3.88086 z m -44.8125,1.35352 0,6.4707 3.10157,0 c 1.18815,0 2.08333,-0.27311 2.68554,-0.81836 0.61035,-0.55339 0.91602,-1.36361 0.91602,-2.42969 0,-1.06608 -0.30567,-1.86719 -0.91602,-2.4043 -0.60221,-0.54524 -1.49739,-0.81835 -2.68554,-0.81835 l -3.10157,0 z m 18.99414,2.19726 c 1.95313,0 3.48861,0.63477 4.60352,1.9043 1.11491,1.26953 1.67187,3.02734 1.67187,5.27344 0,2.23795 -0.55696,3.99576 -1.67187,5.27343 -1.11491,1.26953 -2.65039,1.9043 -4.60352,1.9043 -1.96126,0 -3.49837,-0.63477 -4.61328,-1.9043 -1.10677,-1.27767 -1.66015,-3.03548 -1.66015,-5.27343 0,-2.2461 0.55338,-4.00391 1.66015,-5.27344 1.11491,-1.26953 2.65202,-1.9043 4.61328,-1.9043 z m 41.39453,0 c 1.8392,0 3.29135,0.59505 4.35743,1.7832 1.07421,1.18002 1.61132,2.78776 1.61132,4.82227 l 0,1.09766 -10.32617,0 c 0.0977,1.54622 0.56055,2.72721 1.39063,3.54101 0.83821,0.80567 2.00293,1.20703 3.49219,1.20703 0.86263,0 1.69628,-0.10482 2.50195,-0.3164 0.8138,-0.21159 1.62044,-0.52995 2.41797,-0.95313 l 0,2.125 c -0.80567,0.3418 -1.63216,0.60221 -2.47852,0.78125 -0.84635,0.17904 -1.7054,0.26758 -2.57617,0.26758 -2.18099,0 -3.90983,-0.63477 -5.1875,-1.9043 -1.26953,-1.26953 -1.9043,-2.98567 -1.9043,-5.15039 0,-2.23795 0.60222,-4.01204 1.80664,-5.32226 1.21257,-1.31836 2.84375,-1.97852 4.89453,-1.97852 z m 16.43164,0 c 0.15463,0 0.32455,0.0127 0.51172,0.0371 0.18718,0.0163 0.39519,0.0453 0.62305,0.0859 l 0.0117,2.30664 c -0.25228,-0.14649 -0.52897,-0.2513 -0.83008,-0.31641 -0.29297,-0.0732 -0.61849,-0.11133 -0.97656,-0.11133 -1.26953,0 -2.24609,0.41602 -2.92969,1.2461 -0.67545,0.82194 -1.01367,2.00651 -1.01367,3.55273 l 0,7.20117 -2.25781,0 0,-13.67187 2.25781,0 0,2.125 c 0.472,-0.83008 1.08691,-1.44499 1.84375,-1.84375 0.75684,-0.4069 1.67741,-0.61133 2.75976,-0.61133 z m -48.07226,0.33008 2.24609,0 0,8.1914 c 0,1.29395 0.25326,2.26693 0.75782,2.91797 0.50455,0.64291 1.26041,0.96289 2.26953,0.96289 1.21256,0 2.16927,-0.38509 2.86914,-1.1582 0.70801,-0.77311 1.0625,-1.82747 1.0625,-3.16211 l 0,-7.75195 2.24609,0 0,13.67187 -2.24609,0 0,-2.09961 c -0.54525,0.83008 -1.18002,1.44857 -1.9043,1.85547 -0.71615,0.39877 -1.55176,0.59766 -2.50391,0.59766 -1.57063,0 -2.76237,-0.48828 -3.57617,-1.46484 -0.8138,-0.97657 -1.2207,-2.40332 -1.2207,-4.28321 l 0,-8.27734 z m -9.75391,1.57422 c -1.20442,0 -2.1556,0.472 -2.85547,1.41601 -0.69987,0.93588 -1.05078,2.22168 -1.05078,3.85743 0,1.63574 0.34733,2.92708 1.03907,3.87109 0.69987,0.93587 1.65462,1.40234 2.86718,1.40234 1.19629,0 2.14584,-0.472 2.84571,-1.41601 0.69987,-0.94401 1.04882,-2.22982 1.04882,-3.85742 0,-1.61947 -0.34895,-2.89974 -1.04882,-3.84376 -0.69987,-0.95214 -1.64942,-1.42968 -2.84571,-1.42968 z m 41.41993,0 c -1.25326,0 -2.25879,0.35449 -3.01563,1.0625 -0.7487,0.70801 -1.18099,1.70442 -1.29492,2.99023 l 8.00781,-0.0117 c -0.0163,-1.22884 -0.36165,-2.20898 -1.03711,-2.9414 -0.66732,-0.73243 -1.55338,-1.09961 -2.66015,-1.09961 z"
         style="opacity:1;fill:#0044aa;fill-opacity:1;stroke:none;stroke-width:4;stroke-linecap:square;stroke-linejoin:round;stroke-miterlimit:4;stroke-dasharray:none;stroke-opacity:1" />
      <rect
         style="opacity:1;fill:#0044aa;fill-opacity:1;stroke:none;stroke-width:4;stroke-linecap:square;stroke-linejoin:round;stroke-miterlimit:4;stroke-dasharray:none;stroke-opacity:1"
         id="rect4158"
         width="6.4285712"
         height="82.14286"
         x="45.095497"
         y="151.00136"
         rx="12.1429"
         ry="12.1429"
         inkscape:transform-center-y="-35.568895"
         transform="matrix(0.8660254,-0.5,0.5,0.8660254,0,0)"
         inkscape:transform-center-x="20.535711" />
      <rect
         ry="12.1429"
         rx="12.1429"
         y="-31.336824"
         x="264.29492"
         height="82.14286"
         width="6.4285712"
         id="rect4160"
         style="opacity:1;fill:#0044aa;fill-opacity:1;stroke:none;stroke-width:4;stroke-linecap:square;stroke-linejoin:round;stroke-miterlimit:4;stroke-dasharray:none;stroke-opacity:1"
         inkscape:transform-center-y="-35.568891"
         transform="matrix(0.8660254,0.5,-0.5,0.8660254,0,0)"
         inkscape:transform-center-x="-20.535717" />
      <rect
         style="opacity:1;fill:#0044aa;fill-opacity:1;stroke:none;stroke-width:4;stroke-linecap:square;stroke-linejoin:round;stroke-miterlimit:4;stroke-dasharray:none;stroke-opacity:1"
         id="rect4162"
         width="6.4285712"
         height="82.14286"
         x="179.12389"
         y="95.611053"
         rx="12.1429"
         ry="12.1429" />
    </g>
    <path
       style="opacity:1;fill:#000000;fill-opacity:1;stroke:none;stroke-width:4;stroke-linecap:square;stroke-linejoin:round;stroke-miterlimit:4;stroke-dasharray:none;stroke-opacity:1"
       d="m 503.75754,171.56724 c -1.27083,0 -2.29297,1.24819 -2.29297,2.79883 l 0,57.53711 c 0,1.55064 1.02214,2.79882 2.29297,2.79883 l 33.04102,0 c 1.27083,0 2.29297,-1.24819 2.29297,-2.79883 l 0,-57.53711 c 0,-1.55064 -1.02214,-2.79883 -2.29297,-2.79883 l -33.04102,0 z m 16.52149,1.76367 c 1.15422,0 2.08203,0.30862 2.08203,0.69336 0,0.38474 -0.92781,0.69531 -2.08203,0.69531 -1.15423,0 -2.08399,-0.31057 -2.08399,-0.69531 0,-0.38474 0.92976,-0.69336 2.08399,-0.69336 z m -13.74415,2.89649 27.48438,0 c 1.27083,0 2.29492,1.24818 2.29492,2.79882 l 0,48.21485 c 0,1.55064 -1.02409,2.79883 -2.29492,2.79883 l -27.48438,0 c -1.27083,0 -2.29296,-1.24819 -2.29296,-2.79883 l 0,-48.21485 c 0,-1.55064 1.02213,-2.79882 2.29296,-2.79882 z m 13.74415,55.31836 c 1.15422,0 2.08203,0.30861 2.08203,0.69336 0,0.38474 -0.92782,0.69531 -2.08203,0.69531 -1.15423,0 -2.08399,-0.31057 -2.08399,-0.69531 0,-0.38475 0.92975,-0.69336 2.08399,-0.69336 z"
       id="rect4200"
       inkscape:connector-curvature="0" />
    <text
       xml:space="preserve"
       style="font-style:normal;font-weight:normal;font-size:25px;line-height:125%;font-family:sans-serif;letter-spacing:0px;word-spacing:0px;fill:#000000;fill-opacity:1;stroke:none;stroke-width:1px;stroke-linecap:butt;stroke-linejoin:miter;stroke-opacity:1"
       x="129.21185"
       y="482.36221"
       id="text4211"
       sodipodi:linespacing="125%"><tspan
         sodipodi:role="line"
         id="tspan4213"
         x="129.21185"
         y="482.36221">00:00:00:00:00:01</tspan><tspan
         sodipodi:role="line"
         x="129.21185"
         y="513.61218"
         id="tspan4215">192.168.0.1</tspan></text>
    <text
       xml:space="preserve"
       style="font-style:normal;font-weight:normal;font-size:25px;line-height:125%;font-family:sans-serif;letter-spacing:0px;word-spacing:0px;fill:#000000;fill-opacity:1;stroke:none;stroke-width:1px;stroke-linecap:butt;stroke-linejoin:miter;stroke-opacity:1"
       x="547.14288"
       y="198.79079"
       id="text4217"
       sodipodi:linespacing="125%"><tspan
         sodipodi:role="line"
         id="tspan4219"
         x="547.14288"
         y="198.79079">192.168.0.20</tspan></text>
    <text
       sodipodi:linespacing="125%"
       id="text4221"
       y="482.36221"
       x="509.90637"
       style="font-style:normal;font-weight:normal;font-size:25px;line-height:125%;font-family:sans-serif;letter-spacing:0px;word-spacing:0px;fill:#000000;fill-opacity:1;stroke:none;stroke-width:1px;stroke-linecap:butt;stroke-linejoin:miter;stroke-opacity:1"
       xml:space="preserve"><tspan
         y="482.36221"
         x="509.90637"
         id="tspan4223"
         sodipodi:role="line">00:00:00:00:00:02</tspan><tspan
         id="tspan4225"
         y="513.61218"
         x="509.90637"
         sodipodi:role="line">192.168.0.2</tspan></text>
    <text
       sodipodi:linespacing="125%"
       id="text4221-3"
       y="224.12442"
       x="548.25897"
       style="font-style:normal;font-weight:normal;font-size:17.87974167px;line-height:125%;font-family:sans-serif;letter-spacing:0px;word-spacing:0px;fill:#000000;fill-opacity:1;stroke:none;stroke-width:1px;stroke-linecap:butt;stroke-linejoin:miter;stroke-opacity:1"
       xml:space="preserve"><tspan
         y="224.12442"
         x="548.25897"
         id="tspan4223-9"
         sodipodi:role="line">00:00:00:00:00:0<tspan
   style="font-weight:bold"
   id="tspan4180">2</tspan></tspan><tspan
         id="tspan4225-3"
         y="246.47409"
         x="548.25897"
         sodipodi:role="line">192.168.0.1</tspan></text>
    <text
       xml:space="preserve"
       style="font-style:normal;font-weight:normal;font-size:25px;line-height:125%;font-family:sans-serif;letter-spacing:0px;word-spacing:0px;fill:#000000;fill-opacity:1;stroke:none;stroke-width:1px;stroke-linecap:butt;stroke-linejoin:miter;stroke-opacity:1"
       x="727.14288"
       y="483.07648"
       id="text4260"
       sodipodi:linespacing="125%"><tspan
         sodipodi:role="line"
         id="tspan4262"
         x="727.14288"
         y="483.07648" /></text>
    <path
       inkscape:connector-curvature="0"
       id="path4276"
       d="m 99.471825,171.56724 c -1.27083,0 -2.29297,1.24819 -2.29297,2.79883 l 0,57.53711 c 0,1.55064 1.02214,2.79882 2.29297,2.79883 l 33.041025,0 c 1.27083,0 2.29297,-1.24819 2.29297,-2.79883 l 0,-57.53711 c 0,-1.55064 -1.02214,-2.79883 -2.29297,-2.79883 l -33.041025,0 z m 16.521495,1.76367 c 1.15422,0 2.08203,0.30862 2.08203,0.69336 0,0.38474 -0.92781,0.69531 -2.08203,0.69531 -1.15423,0 -2.08399,-0.31057 -2.08399,-0.69531 0,-0.38474 0.92976,-0.69336 2.08399,-0.69336 z m -13.74415,2.89649 27.48438,0 c 1.27083,0 2.29492,1.24818 2.29492,2.79882 l 0,48.21485 c 0,1.55064 -1.02409,2.79883 -2.29492,2.79883 l -27.48438,0 c -1.27083,0 -2.292965,-1.24819 -2.292965,-2.79883 l 0,-48.21485 c 0,-1.55064 1.022135,-2.79882 2.292965,-2.79882 z m 13.74415,55.31836 c 1.15422,0 2.08203,0.30861 2.08203,0.69336 0,0.38474 -0.92782,0.69531 -2.08203,0.69531 -1.15423,0 -2.08399,-0.31057 -2.08399,-0.69531 0,-0.38475 0.92975,-0.69336 2.08399,-0.69336 z"
       style="opacity:1;fill:#000000;fill-opacity:1;stroke:none;stroke-width:4;stroke-linecap:square;stroke-linejoin:round;stroke-miterlimit:4;stroke-dasharray:none;stroke-opacity:1" />
    <text
       sodipodi:linespacing="125%"
       id="text4278"
       y="198.79079"
       x="142.85716"
       style="font-style:normal;font-weight:normal;font-size:25px;line-height:125%;font-family:sans-serif;letter-spacing:0px;word-spacing:0px;fill:#000000;fill-opacity:1;stroke:none;stroke-width:1px;stroke-linecap:butt;stroke-linejoin:miter;stroke-opacity:1"
       xml:space="preserve"><tspan
         y="198.79079"
         x="142.85716"
         id="tspan4280"
         sodipodi:role="line">192.168.0.20</tspan></text>
    <text
       xml:space="preserve"
       style="font-style:normal;font-weight:normal;font-size:17.87974167px;line-height:125%;font-family:sans-serif;letter-spacing:0px;word-spacing:0px;fill:#000000;fill-opacity:1;stroke:none;stroke-width:1px;stroke-linecap:butt;stroke-linejoin:miter;stroke-opacity:1"
       x="143.97325"
       y="224.12442"
       id="text4282"
       sodipodi:linespacing="125%"><tspan
         sodipodi:role="line"
         id="tspan4284"
         x="143.97325"
         y="224.12442">00:00:00:00:00:0<tspan
   style="font-weight:bold"
   id="tspan4182">1</tspan></tspan><tspan
         sodipodi:role="line"
         x="143.97325"
         y="246.47409"
         id="tspan4286">192.168.0.1</tspan></text>
    <rect
       style="opacity:1;fill:#000000;fill-opacity:1;stroke:none;stroke-width:4;stroke-linecap:square;stroke-linejoin:round;stroke-miterlimit:4;stroke-dasharray:none;stroke-opacity:1"
       id="rect4290"
       width="138.48016"
       height="9.8914404"
       x="324.98236"
       y="201.34557"
       rx="2.2939301"
       ry="1.38896" />
    <path
       style="opacity:1;fill:#000000;fill-opacity:1;stroke:none;stroke-width:4;stroke-linecap:square;stroke-linejoin:round;stroke-miterlimit:4;stroke-dasharray:none;stroke-opacity:1"
       d="m 463.46254,181.18599 0,50.21061 24.43118,-24.43198 c 0.37324,-0.37324 0.49208,-0.85538 0.26609,-1.08137 l -24.69727,-24.69726 z"
       id="rect4292"
       inkscape:connector-curvature="0" />
    <path
       style="fill:none;fill-rule:evenodd;stroke:#000000;stroke-width:1px;stroke-linecap:butt;stroke-linejoin:miter;stroke-opacity:1;marker-end:url(#Arrow1Lend)"
       d="M 662.2206,408.01751 709.07287,230.40642"
       id="path4318"
       inkscape:connector-curvature="0" />
    <text
       xml:space="preserve"
       style="font-style:normal;font-weight:normal;font-size:25px;line-height:125%;font-family:sans-serif;letter-spacing:0px;word-spacing:0px;fill:#000000;fill-opacity:1;stroke:none;stroke-width:1px;stroke-linecap:butt;stroke-linejoin:miter;stroke-opacity:1"
       id="text4606"
       sodipodi:linespacing="125%"
       transform="translate(15.703572,-67.42223)"><textPath
         xlink:href="#path4318"
         id="textPath4616"><tspan
   id="tspan4608">ARP</tspan></textPath></text>
  </g>
</svg>
